<?xml version="1.0" encoding="UTF-8" standalone="no"?>
<!DOCTYPE svg PUBLIC "-//W3C//DTD SVG 1.1//EN"
 "http://www.w3.org/Graphics/SVG/1.1/DTD/svg11.dtd">
<!-- Generated by graphviz version 2.40.1 (20161225.0304)
 -->
<!-- Title: G Pages: 1 -->
<svg width="429pt" height="171pt"
 viewBox="0.00 0.00 428.65 171.00" xmlns="http://www.w3.org/2000/svg" xmlns:xlink="http://www.w3.org/1999/xlink">
<g id="graph0" class="graph" transform="scale(1 1) rotate(0) translate(4 167)">
<title>G</title>
<!-- main -->
<g id="node1" class="node">
<title>main</title>
<ellipse fill="none" stroke="#000000" cx="27.7894" cy="-72" rx="27.5804" ry="18"/>
<text text-anchor="middle" x="27.7894" y="-67.8" font-family="Times,serif" font-size="14.00" fill="#000000">main</text>
</g>
<!-- parse -->
<g id="node2" class="node">
<title>parse</title>
<ellipse fill="none" stroke="#000000" cx="129.1833" cy="-99" rx="28.5325" ry="18"/>
<text text-anchor="middle" x="129.1833" y="-94.8" font-family="Times,serif" font-size="14.00" fill="#000000">parse</text>
</g>
<!-- main&#45;&gt;parse -->
<g id="edge1" class="edge">
<title>main&#45;&gt;parse</title>
<path fill="none" stroke="#000000" d="M53.6377,-78.8831C65.4897,-82.0391 79.7487,-85.8361 92.6707,-89.2771"/>
<polygon fill="#000000" stroke="#000000" points="102.6757,-91.9413 91.8545,-93.7165 97.8441,-90.6547 93.0125,-89.3681 93.0125,-89.3681 93.0125,-89.3681 97.8441,-90.6547 94.1704,-85.0196 102.6757,-91.9413 102.6757,-91.9413"/>
</g>
<!-- init -->
<g id="node4" class="node">
<title>init</title>
<ellipse fill="none" stroke="#000000" cx="239.8957" cy="-145" rx="27" ry="18"/>
<text text-anchor="middle" x="239.8957" y="-140.8" font-family="Times,serif" font-size="14.00" fill="#000000">init</text>
</g>
<!-- main&#45;&gt;init -->
<g id="edge3" class="edge">
<title>main&#45;&gt;init</title>
<path fill="none" stroke="#000000" d="M44.8838,-86.471C63.779,-102.4665 91.5789,-126 91.5789,-126 91.5789,-126 159.4071,-134.6891 203.3253,-140.3152"/>
<polygon fill="#000000" stroke="#000000" points="213.3796,-141.6032 202.8888,-144.796 208.4202,-140.9678 203.4607,-140.3324 203.4607,-140.3324 203.4607,-140.3324 208.4202,-140.9678 204.0325,-135.8689 213.3796,-141.6032 213.3796,-141.6032"/>
</g>
<!-- cleanup -->
<g id="node5" class="node">
<title>cleanup</title>
<ellipse fill="none" stroke="#000000" cx="129.1833" cy="-45" rx="37.7092" ry="18"/>
<text text-anchor="middle" x="129.1833" y="-40.8" font-family="Times,serif" font-size="14.00" fill="#000000">cleanup</text>
</g>
<!-- main&#45;&gt;cleanup -->
<g id="edge4" class="edge">
<title>main&#45;&gt;cleanup</title>
<path fill="none" stroke="#000000" d="M53.6377,-65.1169C63.5204,-62.4853 75.0768,-59.4079 86.1361,-56.463"/>
<polygon fill="#000000" stroke="#000000" points="96.0906,-53.8122 87.5853,-60.734 91.259,-55.0988 86.4273,-56.3855 86.4273,-56.3855 86.4273,-56.3855 91.259,-55.0988 85.2694,-52.037 96.0906,-53.8122 96.0906,-53.8122"/>
</g>
<!-- printf -->
<g id="node7" class="node">
<title>printf</title>
<ellipse fill="none" stroke="#000000" cx="366.8268" cy="-18" rx="29.5104" ry="18"/>
<text text-anchor="middle" x="366.8268" y="-13.8" font-family="Times,serif" font-size="14.00" fill="#000000">printf</text>
</g>
<!-- main&#45;&gt;printf -->
<g id="edge8" class="edge">
<title>main&#45;&gt;printf</title>
<path fill="none" stroke="#000000" d="M44.8838,-57.529C63.779,-41.5335 91.5789,-18 91.5789,-18 91.5789,-18 250.2328,-18 326.6366,-18"/>
<polygon fill="#000000" stroke="#000000" points="336.8465,-18 326.8466,-22.5001 331.8465,-18 326.8465,-18.0001 326.8465,-18.0001 326.8465,-18.0001 331.8465,-18 326.8465,-13.5001 336.8465,-18 336.8465,-18"/>
</g>
<!-- execute -->
<g id="node3" class="node">
<title>execute</title>
<ellipse fill="none" stroke="#000000" cx="239.8957" cy="-91" rx="37.2161" ry="18"/>
<text text-anchor="middle" x="239.8957" y="-86.8" font-family="Times,serif" font-size="14.00" fill="#000000">execute</text>
</g>
<!-- parse&#45;&gt;execute -->
<g id="edge2" class="edge">
<title>parse&#45;&gt;execute</title>
<path fill="none" stroke="#000000" d="M157.9827,-96.919C168.5872,-96.1527 180.8957,-95.2633 192.6984,-94.4104"/>
<polygon fill="#000000" stroke="#000000" points="202.8846,-93.6744 193.235,-98.8835 197.8976,-94.0348 192.9106,-94.3952 192.9106,-94.3952 192.9106,-94.3952 197.8976,-94.0348 192.5862,-89.9069 202.8846,-93.6744 202.8846,-93.6744"/>
</g>
<!-- make_string -->
<g id="node6" class="node">
<title>make_string</title>
<ellipse fill="none" stroke="#000000" cx="366.8268" cy="-145" rx="53.6471" ry="18"/>
<text text-anchor="middle" x="366.8268" y="-140.8" font-family="Times,serif" font-size="14.00" fill="#000000">make_string</text>
</g>
<!-- execute&#45;&gt;make_string -->
<g id="edge5" class="edge">
<title>execute&#45;&gt;make_string</title>
<path fill="none" stroke="#000000" d="M268.0658,-102.9844C284.4855,-109.9697 305.5267,-118.9212 323.9652,-126.7655"/>
<polygon fill="#000000" stroke="#000000" points="333.3319,-130.7503 322.3684,-130.9764 328.731,-128.7929 324.13,-126.8355 324.13,-126.8355 324.13,-126.8355 328.731,-128.7929 325.8917,-122.6947 333.3319,-130.7503 333.3319,-130.7503"/>
</g>
<!-- execute&#45;&gt;printf -->
<g id="edge6" class="edge">
<title>execute&#45;&gt;printf</title>
<path fill="none" stroke="#000000" d="M264.0692,-77.0974C284.5523,-65.3173 314.0377,-48.3598 336.1753,-35.6282"/>
<polygon fill="#000000" stroke="#000000" points="344.8643,-30.631 338.4391,-39.5174 340.53,-33.1237 336.1956,-35.6165 336.1956,-35.6165 336.1956,-35.6165 340.53,-33.1237 333.9522,-31.7156 344.8643,-30.631 344.8643,-30.631"/>
</g>
<!-- compare -->
<g id="node8" class="node">
<title>compare</title>
<ellipse fill="none" stroke="#000000" cx="366.8268" cy="-91" rx="40.5989" ry="18"/>
<text text-anchor="middle" x="366.8268" y="-86.8" font-family="Times,serif" font-size="14.00" fill="#000000">compare</text>
</g>
<!-- execute&#45;&gt;compare -->
<g id="edge9" class="edge">
<title>execute&#45;&gt;compare</title>
<path fill="none" stroke="#000000" d="M277.2927,-91C289.4102,-91 303.0624,-91 315.9866,-91"/>
<polygon fill="#000000" stroke="#000000" points="326.1522,-91 316.1523,-95.5001 321.1522,-91 316.1522,-91.0001 316.1522,-91.0001 316.1522,-91.0001 321.1522,-91 316.1522,-86.5001 326.1522,-91 326.1522,-91"/>
</g>
<!-- init&#45;&gt;make_string -->
<g id="edge7" class="edge">
<title>init&#45;&gt;make_string</title>
<path fill="none" stroke="#000000" d="M267.1256,-145C277.7018,-145 290.2969,-145 302.9155,-145"/>
<polygon fill="#000000" stroke="#000000" points="313.0024,-145 303.0024,-149.5001 308.0024,-145 303.0024,-145.0001 303.0024,-145.0001 303.0024,-145.0001 308.0024,-145 303.0023,-140.5001 313.0024,-145 313.0024,-145"/>
</g>
</g>
</svg>
