<?xml version="1.0" encoding="UTF-8" standalone="no"?>
<!DOCTYPE svg PUBLIC "-//W3C//DTD SVG 1.1//EN"
 "http://www.w3.org/Graphics/SVG/1.1/DTD/svg11.dtd">
<!-- Generated by graphviz version 2.40.1 (20161225.0304)
 -->
<!-- Title: G Pages: 1 -->
<svg width="296pt" height="260pt"
 viewBox="0.00 0.00 295.58 260.00" xmlns="http://www.w3.org/2000/svg" xmlns:xlink="http://www.w3.org/1999/xlink">
<g id="graph0" class="graph" transform="scale(1 1) rotate(0) translate(4 256)">
<title>G</title>
<!-- main -->
<g id="node1" class="node">
<title>main</title>
<ellipse fill="none" stroke="#000000" cx="152.8233" cy="-18" rx="27.5804" ry="18"/>
<text text-anchor="middle" x="152.8233" y="-13.8" font-family="Times,serif" font-size="14.00" fill="#000000">main</text>
</g>
<!-- parse -->
<g id="node2" class="node">
<title>parse</title>
<ellipse fill="none" stroke="#000000" cx="110.8233" cy="-90" rx="28.5325" ry="18"/>
<text text-anchor="middle" x="110.8233" y="-85.8" font-family="Times,serif" font-size="14.00" fill="#000000">parse</text>
</g>
<!-- main&#45;&gt;parse -->
<g id="edge1" class="edge">
<title>main&#45;&gt;parse</title>
<path fill="none" stroke="#000000" d="M142.8698,-35.063C137.7962,-43.7607 131.5199,-54.5201 125.8702,-64.2052"/>
<polygon fill="#000000" stroke="#000000" points="120.7052,-73.0595 121.857,-62.1542 123.2246,-68.7406 125.744,-64.4217 125.744,-64.4217 125.744,-64.4217 123.2246,-68.7406 129.631,-66.6891 120.7052,-73.0595 120.7052,-73.0595"/>
</g>
<!-- init -->
<g id="node4" class="node">
<title>init</title>
<ellipse fill="none" stroke="#000000" cx="53.8233" cy="-162" rx="27" ry="18"/>
<text text-anchor="middle" x="53.8233" y="-157.8" font-family="Times,serif" font-size="14.00" fill="#000000">init</text>
</g>
<!-- main&#45;&gt;init -->
<g id="edge3" class="edge">
<title>main&#45;&gt;init</title>
<path fill="none" stroke="#000000" d="M133.4575,-31.0719C109.7813,-47.0533 72.8233,-72 72.8233,-72 72.8233,-72 65.3389,-107.4521 59.7649,-133.8551"/>
<polygon fill="#000000" stroke="#000000" points="57.6682,-143.7872 55.3309,-133.0733 58.701,-138.895 59.7338,-134.0028 59.7338,-134.0028 59.7338,-134.0028 58.701,-138.895 64.1368,-134.9324 57.6682,-143.7872 57.6682,-143.7872"/>
</g>
<!-- cleanup -->
<g id="node5" class="node">
<title>cleanup</title>
<ellipse fill="none" stroke="#000000" cx="194.8233" cy="-90" rx="37.7092" ry="18"/>
<text text-anchor="middle" x="194.8233" y="-85.8" font-family="Times,serif" font-size="14.00" fill="#000000">cleanup</text>
</g>
<!-- main&#45;&gt;cleanup -->
<g id="edge4" class="edge">
<title>main&#45;&gt;cleanup</title>
<path fill="none" stroke="#000000" d="M162.7767,-35.063C167.7768,-43.6346 173.945,-54.2086 179.5303,-63.7835"/>
<polygon fill="#000000" stroke="#000000" points="184.6495,-72.5593 175.7238,-66.189 182.1301,-68.2404 179.6108,-63.9215 179.6108,-63.9215 179.6108,-63.9215 182.1301,-68.2404 183.4978,-61.6541 184.6495,-72.5593 184.6495,-72.5593"/>
</g>
<!-- printf -->
<g id="node7" class="node">
<title>printf</title>
<ellipse fill="none" stroke="#000000" cx="257.8233" cy="-234" rx="29.5104" ry="18"/>
<text text-anchor="middle" x="257.8233" y="-229.8" font-family="Times,serif" font-size="14.00" fill="#000000">printf</text>
</g>
<!-- main&#45;&gt;printf -->
<g id="edge8" class="edge">
<title>main&#45;&gt;printf</title>
<path fill="none" stroke="#000000" d="M173.4653,-30.5244C199.7568,-46.4766 241.8233,-72 241.8233,-72 241.8233,-72 250.4399,-159.2434 255.0265,-205.6826"/>
<polygon fill="#000000" stroke="#000000" points="256.0189,-215.7314 250.5578,-206.2222 255.5275,-210.7557 255.036,-205.7799 255.036,-205.7799 255.036,-205.7799 255.5275,-210.7557 259.5142,-205.3375 256.0189,-215.7314 256.0189,-215.7314"/>
</g>
<!-- execute -->
<g id="node3" class="node">
<title>execute</title>
<ellipse fill="none" stroke="#000000" cx="150.8233" cy="-162" rx="37.2161" ry="18"/>
<text text-anchor="middle" x="150.8233" y="-157.8" font-family="Times,serif" font-size="14.00" fill="#000000">execute</text>
</g>
<!-- parse&#45;&gt;execute -->
<g id="edge2" class="edge">
<title>parse&#45;&gt;execute</title>
<path fill="none" stroke="#000000" d="M120.3027,-107.063C125.0647,-115.6346 130.9392,-126.2086 136.2585,-135.7835"/>
<polygon fill="#000000" stroke="#000000" points="141.134,-144.5593 132.3438,-138.0032 138.7057,-140.1885 136.2775,-135.8177 136.2775,-135.8177 136.2775,-135.8177 138.7057,-140.1885 140.2112,-133.6323 141.134,-144.5593 141.134,-144.5593"/>
</g>
<!-- make_string -->
<g id="node6" class="node">
<title>make_string</title>
<ellipse fill="none" stroke="#000000" cx="53.8233" cy="-234" rx="53.6471" ry="18"/>
<text text-anchor="middle" x="53.8233" y="-229.8" font-family="Times,serif" font-size="14.00" fill="#000000">make_string</text>
</g>
<!-- execute&#45;&gt;make_string -->
<g id="edge5" class="edge">
<title>execute&#45;&gt;make_string</title>
<path fill="none" stroke="#000000" d="M130.252,-177.2693C116.9564,-187.1383 99.4128,-200.1603 84.4875,-211.2389"/>
<polygon fill="#000000" stroke="#000000" points="76.0542,-217.4987 81.4018,-207.9251 80.0691,-214.5186 84.0839,-211.5384 84.0839,-211.5384 84.0839,-211.5384 80.0691,-214.5186 86.766,-215.1518 76.0542,-217.4987 76.0542,-217.4987"/>
</g>
<!-- execute&#45;&gt;printf -->
<g id="edge6" class="edge">
<title>execute&#45;&gt;printf</title>
<path fill="none" stroke="#000000" d="M172.7345,-176.744C188.9789,-187.6748 211.2768,-202.679 228.9713,-214.5856"/>
<polygon fill="#000000" stroke="#000000" points="237.7484,-220.4917 226.9396,-218.6424 233.6001,-217.7003 229.4518,-214.9089 229.4518,-214.9089 229.4518,-214.9089 233.6001,-217.7003 231.9641,-211.1754 237.7484,-220.4917 237.7484,-220.4917"/>
</g>
<!-- compare -->
<g id="node8" class="node">
<title>compare</title>
<ellipse fill="none" stroke="#000000" cx="165.8233" cy="-234" rx="40.5989" ry="18"/>
<text text-anchor="middle" x="165.8233" y="-229.8" font-family="Times,serif" font-size="14.00" fill="#000000">compare</text>
</g>
<!-- execute&#45;&gt;compare -->
<g id="edge9" class="edge">
<title>execute&#45;&gt;compare</title>
<path fill="none" stroke="#000000" d="M154.6084,-180.1686C156.2126,-187.869 158.1203,-197.0257 159.9031,-205.5834"/>
<polygon fill="#000000" stroke="#000000" points="161.9872,-215.5867 155.5421,-206.7148 160.9673,-210.6918 159.9475,-205.7969 159.9475,-205.7969 159.9475,-205.7969 160.9673,-210.6918 164.3529,-204.8791 161.9872,-215.5867 161.9872,-215.5867"/>
</g>
<!-- init&#45;&gt;make_string -->
<g id="edge7" class="edge">
<title>init&#45;&gt;make_string</title>
<path fill="none" stroke="#000000" d="M53.8233,-180.1686C53.8233,-187.869 53.8233,-197.0257 53.8233,-205.5834"/>
<polygon fill="#000000" stroke="#000000" points="53.8233,-215.5867 49.3234,-205.5867 53.8233,-210.5867 53.8234,-205.5867 53.8234,-205.5867 53.8234,-205.5867 53.8233,-210.5867 58.3234,-205.5868 53.8233,-215.5867 53.8233,-215.5867"/>
</g>
</g>
</svg>
