<?xml version="1.0" encoding="UTF-8" standalone="no"?>
<!DOCTYPE svg PUBLIC "-//W3C//DTD SVG 1.1//EN"
 "http://www.w3.org/Graphics/SVG/1.1/DTD/svg11.dtd">
<!-- Generated by graphviz version 2.40.1 (20161225.0304)
 -->
<!-- Title: G Pages: 1 -->
<svg width="257pt" height="260pt"
 viewBox="0.00 0.00 256.60 260.00" xmlns="http://www.w3.org/2000/svg" xmlns:xlink="http://www.w3.org/1999/xlink">
<g id="graph0" class="graph" transform="scale(1 1) rotate(0) translate(4 256)">
<title>G</title>
<!-- main -->
<g id="node1" class="node">
<title>main</title>
<polygon fill="none" stroke="#000000" points="155.6035,-252 107.6035,-252 107.6035,-216 161.6035,-216 161.6035,-246 155.6035,-252"/>
<polyline fill="none" stroke="#000000" points="155.6035,-252 155.6035,-246 "/>
<polyline fill="none" stroke="#000000" points="161.6035,-246 155.6035,-246 "/>
<text text-anchor="middle" x="134.6035" y="-229.8" font-family="Times,serif" font-size="14.00" fill="#000000">main</text>
</g>
<!-- parse -->
<g id="node2" class="node">
<title>parse</title>
<polygon fill="none" stroke="#000000" points="118.6035,-180 70.6035,-180 70.6035,-144 124.6035,-144 124.6035,-174 118.6035,-180"/>
<polyline fill="none" stroke="#000000" points="118.6035,-180 118.6035,-174 "/>
<polyline fill="none" stroke="#000000" points="124.6035,-174 118.6035,-174 "/>
<text text-anchor="middle" x="97.6035" y="-157.8" font-family="Times,serif" font-size="14.00" fill="#000000">parse</text>
</g>
<!-- main&#45;&gt;parse -->
<g id="edge1" class="edge">
<title>main&#45;&gt;parse</title>
<path fill="none" stroke="#000000" d="M125.2669,-215.8314C121.1792,-207.8771 116.2932,-198.369 111.7726,-189.5723"/>
<polygon fill="#000000" stroke="#000000" points="107.0659,-180.4133 115.6391,-187.2508 109.3513,-184.8604 111.6366,-189.3076 111.6366,-189.3076 111.6366,-189.3076 109.3513,-184.8604 107.6342,-191.3644 107.0659,-180.4133 107.0659,-180.4133"/>
</g>
<!-- init -->
<g id="node4" class="node">
<title>init</title>
<polygon fill="none" stroke="#000000" points="63.6035,-108 15.6035,-108 15.6035,-72 69.6035,-72 69.6035,-102 63.6035,-108"/>
<polyline fill="none" stroke="#000000" points="63.6035,-108 63.6035,-102 "/>
<polyline fill="none" stroke="#000000" points="69.6035,-102 63.6035,-102 "/>
<text text-anchor="middle" x="42.6035" y="-85.8" font-family="Times,serif" font-size="14.00" fill="#000000">init</text>
</g>
<!-- main&#45;&gt;init -->
<g id="edge3" class="edge">
<title>main&#45;&gt;init</title>
<path fill="none" stroke="#000000" d="M109.889,-215.7181C88.7112,-200.0522 61.6035,-180 61.6035,-180 61.6035,-180 54.1192,-144.5479 48.5452,-118.1449"/>
<polygon fill="#000000" stroke="#000000" points="46.4484,-108.2128 52.9171,-117.0676 47.4813,-113.105 48.5141,-117.9972 48.5141,-117.9972 48.5141,-117.9972 47.4813,-113.105 44.1112,-118.9267 46.4484,-108.2128 46.4484,-108.2128"/>
</g>
<!-- cleanup -->
<g id="node5" class="node">
<title>cleanup</title>
<polygon fill="none" stroke="#000000" points="196.1366,-180 143.0704,-180 143.0704,-144 202.1366,-144 202.1366,-174 196.1366,-180"/>
<polyline fill="none" stroke="#000000" points="196.1366,-180 196.1366,-174 "/>
<polyline fill="none" stroke="#000000" points="202.1366,-174 196.1366,-174 "/>
<text text-anchor="middle" x="172.6035" y="-157.8" font-family="Times,serif" font-size="14.00" fill="#000000">cleanup</text>
</g>
<!-- main&#45;&gt;cleanup -->
<g id="edge4" class="edge">
<title>main&#45;&gt;cleanup</title>
<path fill="none" stroke="#000000" d="M144.1925,-215.8314C148.4353,-207.7925 153.5156,-198.1666 158.1995,-189.2918"/>
<polygon fill="#000000" stroke="#000000" points="162.8854,-180.4133 162.1975,-191.3576 160.5516,-184.8352 158.2178,-189.2571 158.2178,-189.2571 158.2178,-189.2571 160.5516,-184.8352 154.238,-187.1567 162.8854,-180.4133 162.8854,-180.4133"/>
</g>
<!-- printf -->
<g id="node7" class="node">
<title>printf</title>
<polygon fill="none" stroke="#000000" points="242.6035,-36 194.6035,-36 194.6035,0 248.6035,0 248.6035,-30 242.6035,-36"/>
<polyline fill="none" stroke="#000000" points="242.6035,-36 242.6035,-30 "/>
<polyline fill="none" stroke="#000000" points="248.6035,-30 242.6035,-30 "/>
<text text-anchor="middle" x="221.6035" y="-13.8" font-family="Times,serif" font-size="14.00" fill="#000000">printf</text>
</g>
<!-- main&#45;&gt;printf -->
<g id="edge8" class="edge">
<title>main&#45;&gt;printf</title>
<path fill="none" stroke="#000000" d="M160.6722,-215.7181C183.0105,-200.0522 211.6035,-180 211.6035,-180 211.6035,-180 216.9889,-92.7566 219.8555,-46.3174"/>
<polygon fill="#000000" stroke="#000000" points="220.4758,-36.2686 224.3511,-46.5268 220.1677,-41.2591 219.8596,-46.2496 219.8596,-46.2496 219.8596,-46.2496 220.1677,-41.2591 215.3682,-45.9723 220.4758,-36.2686 220.4758,-36.2686"/>
</g>
<!-- execute -->
<g id="node3" class="node">
<title>execute</title>
<polygon fill="none" stroke="#000000" points="149.8492,-108 97.3578,-108 97.3578,-72 155.8492,-72 155.8492,-102 149.8492,-108"/>
<polyline fill="none" stroke="#000000" points="149.8492,-108 149.8492,-102 "/>
<polyline fill="none" stroke="#000000" points="155.8492,-102 149.8492,-102 "/>
<text text-anchor="middle" x="126.6035" y="-85.8" font-family="Times,serif" font-size="14.00" fill="#000000">execute</text>
</g>
<!-- parse&#45;&gt;execute -->
<g id="edge2" class="edge">
<title>parse&#45;&gt;execute</title>
<path fill="none" stroke="#000000" d="M104.9214,-143.8314C108.0912,-135.9617 111.8735,-126.5712 115.3848,-117.8533"/>
<polygon fill="#000000" stroke="#000000" points="119.1871,-108.4133 119.625,-119.3704 117.319,-113.0512 115.4509,-117.6891 115.4509,-117.6891 115.4509,-117.6891 117.319,-113.0512 111.2768,-116.0079 119.1871,-108.4133 119.1871,-108.4133"/>
</g>
<!-- make_string -->
<g id="node6" class="node">
<title>make_string</title>
<polygon fill="none" stroke="#000000" points="79.3108,-36 -.1038,-36 -.1038,0 85.3108,0 85.3108,-30 79.3108,-36"/>
<polyline fill="none" stroke="#000000" points="79.3108,-36 79.3108,-30 "/>
<polyline fill="none" stroke="#000000" points="85.3108,-30 79.3108,-30 "/>
<text text-anchor="middle" x="42.6035" y="-13.8" font-family="Times,serif" font-size="14.00" fill="#000000">make_string</text>
</g>
<!-- execute&#45;&gt;make_string -->
<g id="edge5" class="edge">
<title>execute&#45;&gt;make_string</title>
<path fill="none" stroke="#000000" d="M105.4068,-71.8314C95.1601,-63.0485 82.7032,-52.3712 71.5938,-42.8489"/>
<polygon fill="#000000" stroke="#000000" points="63.7935,-36.1628 74.3146,-39.2541 67.5898,-39.4168 71.3861,-42.6708 71.3861,-42.6708 71.3861,-42.6708 67.5898,-39.4168 68.4575,-46.0874 63.7935,-36.1628 63.7935,-36.1628"/>
</g>
<!-- execute&#45;&gt;printf -->
<g id="edge6" class="edge">
<title>execute&#45;&gt;printf</title>
<path fill="none" stroke="#000000" d="M150.576,-71.8314C162.3896,-62.8779 176.8007,-51.9558 189.547,-42.2955"/>
<polygon fill="#000000" stroke="#000000" points="197.6387,-36.1628 192.3871,-45.7894 193.6538,-39.1829 189.669,-42.2031 189.669,-42.2031 189.669,-42.2031 193.6538,-39.1829 186.9509,-38.6167 197.6387,-36.1628 197.6387,-36.1628"/>
</g>
<!-- compare -->
<g id="node8" class="node">
<title>compare</title>
<polygon fill="none" stroke="#000000" points="161.7972,-36 103.4099,-36 103.4099,0 167.7972,0 167.7972,-30 161.7972,-36"/>
<polyline fill="none" stroke="#000000" points="161.7972,-36 161.7972,-30 "/>
<polyline fill="none" stroke="#000000" points="167.7972,-30 161.7972,-30 "/>
<text text-anchor="middle" x="135.6035" y="-13.8" font-family="Times,serif" font-size="14.00" fill="#000000">compare</text>
</g>
<!-- execute&#45;&gt;compare -->
<g id="edge9" class="edge">
<title>execute&#45;&gt;compare</title>
<path fill="none" stroke="#000000" d="M128.8746,-71.8314C129.8371,-64.131 130.9817,-54.9743 132.0514,-46.4166"/>
<polygon fill="#000000" stroke="#000000" points="133.3019,-36.4133 136.5267,-46.8942 132.6816,-41.3747 132.0614,-46.336 132.0614,-46.336 132.0614,-46.336 132.6816,-41.3747 127.5962,-45.7779 133.3019,-36.4133 133.3019,-36.4133"/>
</g>
<!-- init&#45;&gt;make_string -->
<g id="edge7" class="edge">
<title>init&#45;&gt;make_string</title>
<path fill="none" stroke="#000000" d="M42.6035,-71.8314C42.6035,-64.131 42.6035,-54.9743 42.6035,-46.4166"/>
<polygon fill="#000000" stroke="#000000" points="42.6035,-36.4133 47.1036,-46.4132 42.6036,-41.4133 42.6036,-46.4133 42.6036,-46.4133 42.6036,-46.4133 42.6036,-41.4133 38.1036,-46.4133 42.6035,-36.4133 42.6035,-36.4133"/>
</g>
</g>
</svg>
