<?xml version="1.0" encoding="UTF-8" standalone="no"?>
<!DOCTYPE svg PUBLIC "-//W3C//DTD SVG 1.1//EN"
 "http://www.w3.org/Graphics/SVG/1.1/DTD/svg11.dtd">
<!-- Generated by graphviz version 2.40.1 (20161225.0304)
 -->
<!-- Title: %3 Pages: 1 -->
<svg width="222pt" height="364pt"
 viewBox="0.00 0.00 222.00 364.00" xmlns="http://www.w3.org/2000/svg" xmlns:xlink="http://www.w3.org/1999/xlink">
<g id="graph0" class="graph" transform="scale(1 1) rotate(0) translate(4 360)">
<title>%3</title>
<g id="clust1" class="cluster">
<title>cluster0</title>
<polygon fill="transparent" stroke="#000000" points="64,-152 64,-348 206,-348 206,-152 64,-152"/>
</g>
<g id="clust2" class="cluster">
<title>cluster1</title>
<polygon fill="transparent" stroke="#000000" points="64,-8 64,-132 206,-132 206,-8 64,-8"/>
</g>
<!-- a -->
<g id="node1" class="node">
<title>a</title>
<polygon fill="none" stroke="#000000" points="162,-314.5442 162,-329.4558 146.1838,-340 123.8162,-340 108,-329.4558 108,-314.5442 123.8162,-304 146.1838,-304 162,-314.5442"/>
<text text-anchor="middle" x="135" y="-317.8" font-family="Times,serif" font-size="14.00" fill="#000000">a</text>
</g>
<!-- b -->
<g id="node2" class="node">
<title>b</title>
<polygon fill="none" stroke="#000000" points="126,-242.5442 126,-257.4558 110.1838,-268 87.8162,-268 72,-257.4558 72,-242.5442 87.8162,-232 110.1838,-232 126,-242.5442"/>
<text text-anchor="middle" x="99" y="-245.8" font-family="Times,serif" font-size="14.00" fill="#000000">b</text>
</g>
<!-- a&#45;&gt;b -->
<g id="edge1" class="edge">
<title>a&#45;&gt;b</title>
<path fill="none" stroke="#000000" d="M125.9157,-303.8314C121.9385,-295.8771 117.1845,-286.369 112.7861,-277.5723"/>
<polygon fill="#000000" stroke="#000000" points="115.8093,-275.7923 108.2066,-268.4133 109.5483,-278.9228 115.8093,-275.7923"/>
</g>
<!-- c -->
<g id="node3" class="node">
<title>c</title>
<polygon fill="none" stroke="#000000" points="198,-242.5442 198,-257.4558 182.1838,-268 159.8162,-268 144,-257.4558 144,-242.5442 159.8162,-232 182.1838,-232 198,-242.5442"/>
<text text-anchor="middle" x="171" y="-245.8" font-family="Times,serif" font-size="14.00" fill="#000000">c</text>
</g>
<!-- a&#45;&gt;c -->
<g id="edge2" class="edge">
<title>a&#45;&gt;c</title>
<path fill="none" stroke="#000000" d="M144.0843,-303.8314C148.0615,-295.8771 152.8155,-286.369 157.2139,-277.5723"/>
<polygon fill="#000000" stroke="#000000" points="160.4517,-278.9228 161.7934,-268.4133 154.1907,-275.7923 160.4517,-278.9228"/>
</g>
<!-- d -->
<g id="node4" class="node">
<title>d</title>
<polygon fill="none" stroke="#000000" points="126,-170.5442 126,-185.4558 110.1838,-196 87.8162,-196 72,-185.4558 72,-170.5442 87.8162,-160 110.1838,-160 126,-170.5442"/>
<text text-anchor="middle" x="99" y="-173.8" font-family="Times,serif" font-size="14.00" fill="#000000">d</text>
</g>
<!-- b&#45;&gt;d -->
<g id="edge3" class="edge">
<title>b&#45;&gt;d</title>
<path fill="none" stroke="#000000" d="M99,-231.8314C99,-224.131 99,-214.9743 99,-206.4166"/>
<polygon fill="#000000" stroke="#000000" points="102.5001,-206.4132 99,-196.4133 95.5001,-206.4133 102.5001,-206.4132"/>
</g>
<!-- f -->
<g id="node7" class="node">
<title>f</title>
<polygon fill="none" stroke="#000000" points="126,-26.5442 126,-41.4558 110.1838,-52 87.8162,-52 72,-41.4558 72,-26.5442 87.8162,-16 110.1838,-16 126,-26.5442"/>
<text text-anchor="middle" x="99" y="-29.8" font-family="Times,serif" font-size="14.00" fill="#000000">f</text>
</g>
<!-- b&#45;&gt;f -->
<g id="edge7" class="edge">
<title>b&#45;&gt;f</title>
<path fill="none" stroke="#000000" d="M113.4934,-233.821C121.5382,-223.7252 130.7554,-210.0191 135,-196 141.9225,-173.1366 145.3998,-157.6593 145.432,-142.2164"/>
<polygon fill="#000000" stroke="#000000" points="148.9176,-141.8227 144.9572,-131.9959 141.9251,-142.1476 148.9176,-141.8227"/>
</g>
<!-- c&#45;&gt;d -->
<g id="edge4" class="edge">
<title>c&#45;&gt;d</title>
<path fill="none" stroke="#000000" d="M155.3771,-234.3771C145.5647,-224.5647 132.7407,-211.7407 121.8031,-200.8031"/>
<polygon fill="#000000" stroke="#000000" points="124.1384,-198.1887 114.5924,-193.5924 119.1887,-203.1384 124.1384,-198.1887"/>
</g>
<!-- e -->
<g id="node5" class="node">
<title>e</title>
<polygon fill="none" stroke="#000000" points="126,-98.5442 126,-113.4558 110.1838,-124 87.8162,-124 72,-113.4558 72,-98.5442 87.8162,-88 110.1838,-88 126,-98.5442"/>
<text text-anchor="middle" x="99" y="-101.8" font-family="Times,serif" font-size="14.00" fill="#000000">e</text>
</g>
<!-- c&#45;&gt;e -->
<g id="edge10" class="edge">
<title>c&#45;&gt;e</title>
<path fill="none" stroke="#000000" d="M135,-152C130.8375,-144.5242 125.5082,-136.9794 120.2334,-130.2231"/>
<polygon fill="#000000" stroke="#000000" points="122.6962,-127.704 113.673,-122.1514 117.2641,-132.119 122.6962,-127.704"/>
</g>
<!-- g -->
<g id="node6" class="node">
<title>g</title>
<polygon fill="none" stroke="#000000" points="198,-26.5442 198,-41.4558 182.1838,-52 159.8162,-52 144,-41.4558 144,-26.5442 159.8162,-16 182.1838,-16 198,-26.5442"/>
<text text-anchor="middle" x="171" y="-29.8" font-family="Times,serif" font-size="14.00" fill="#000000">g</text>
</g>
<!-- c&#45;&gt;g -->
<g id="edge9" class="edge">
<title>c&#45;&gt;g</title>
<path fill="none" stroke="#000000" d="M171,-152.004C171,-148.766 171,-145.516 171,-142.2656"/>
<polygon fill="#000000" stroke="#000000" points="174.5001,-141.9975 171,-131.9976 167.5001,-141.9976 174.5001,-141.9975"/>
</g>
<!-- d&#45;&gt;e -->
<g id="edge8" class="edge">
<title>d&#45;&gt;e</title>
<path fill="none" stroke="#000000" d="M99,-159.8314C99,-152.131 99,-142.9743 99,-134.4166"/>
<polygon fill="#000000" stroke="#000000" points="102.5001,-134.4132 99,-124.4133 95.5001,-134.4133 102.5001,-134.4132"/>
</g>
<!-- h -->
<g id="node8" class="node">
<title>h</title>
<polygon fill="none" stroke="#000000" points="54,-98.5442 54,-113.4558 38.1838,-124 15.8162,-124 0,-113.4558 0,-98.5442 15.8162,-88 38.1838,-88 54,-98.5442"/>
<text text-anchor="middle" x="27" y="-101.8" font-family="Times,serif" font-size="14.00" fill="#000000">h</text>
</g>
<!-- d&#45;&gt;h -->
<g id="edge11" class="edge">
<title>d&#45;&gt;h</title>
<path fill="none" stroke="#000000" d="M83.3771,-162.3771C73.5647,-152.5647 60.7407,-139.7407 49.8031,-128.8031"/>
<polygon fill="#000000" stroke="#000000" points="52.1384,-126.1887 42.5924,-121.5924 47.1887,-131.1384 52.1384,-126.1887"/>
</g>
<!-- e&#45;&gt;g -->
<g id="edge5" class="edge">
<title>e&#45;&gt;g</title>
<path fill="none" stroke="#000000" d="M114.6229,-90.3771C124.4353,-80.5647 137.2593,-67.7407 148.1969,-56.8031"/>
<polygon fill="#000000" stroke="#000000" points="150.8113,-59.1384 155.4076,-49.5924 145.8616,-54.1887 150.8113,-59.1384"/>
</g>
<!-- e&#45;&gt;f -->
<g id="edge6" class="edge">
<title>e&#45;&gt;f</title>
<path fill="none" stroke="#000000" d="M99,-87.8314C99,-80.131 99,-70.9743 99,-62.4166"/>
<polygon fill="#000000" stroke="#000000" points="102.5001,-62.4132 99,-52.4133 95.5001,-62.4133 102.5001,-62.4132"/>
</g>
</g>
</svg>
