<?xml version="1.0" encoding="UTF-8" standalone="no"?>
<!DOCTYPE svg PUBLIC "-//W3C//DTD SVG 1.1//EN"
 "http://www.w3.org/Graphics/SVG/1.1/DTD/svg11.dtd">
<!-- Generated by graphviz version 2.40.1 (20161225.0304)
 -->
<!-- Title: %3 Pages: 1 -->
<svg width="384pt" height="452pt"
 viewBox="0.00 0.00 384.23 451.78" xmlns="http://www.w3.org/2000/svg" xmlns:xlink="http://www.w3.org/1999/xlink">
<g id="graph0" class="graph" transform="scale(1 1) rotate(0) translate(4 447.7809)">
<title>%3</title>
<!-- g1 -->
<g id="node1" class="node">
<title>g1</title>
<polygon fill="none" stroke="#000000" points="232.8596,-427.572 209.5116,-443.705 186.1637,-427.572 195.0818,-401.4682 223.9415,-401.4682 232.8596,-427.572"/>
<text text-anchor="middle" x="209.5116" y="-416.1571" font-family="Times,serif" font-size="14.00" fill="#000000">g1</text>
</g>
<!-- g2 -->
<g id="node2" class="node">
<title>g2</title>
<polygon fill="none" stroke="#000000" points="123.8596,-330.1382 100.5116,-346.2713 77.1637,-330.1382 86.0818,-304.0345 114.9415,-304.0345 123.8596,-330.1382"/>
<text text-anchor="middle" x="100.5116" y="-318.7233" font-family="Times,serif" font-size="14.00" fill="#000000">g2</text>
</g>
<!-- g1&#45;&gt;g2 -->
<g id="edge1" class="edge">
<title>g1&#45;&gt;g2</title>
<path fill="none" stroke="#000000" d="M192.4533,-408.4764C176.5332,-397.0582 152.4555,-378.9283 133.5116,-360.9332 128.6884,-356.3515 123.8156,-351.1337 119.3492,-346.0631"/>
<polygon fill="#000000" stroke="#000000" points="121.8919,-343.6512 112.7308,-338.329 116.5734,-348.2024 121.8919,-343.6512"/>
</g>
<!-- g3 -->
<g id="node3" class="node">
<title>g3</title>
<polygon fill="none" stroke="#000000" points="194.0922,-330.1073 170.5116,-346.1712 146.931,-330.1073 155.938,-304.1154 185.0853,-304.1154 194.0922,-330.1073"/>
<polygon fill="none" stroke="#000000" points="198.8877,-331.666 170.5116,-350.9967 142.1356,-331.666 153.0585,-300.1455 187.9648,-300.1455 198.8877,-331.666"/>
<text text-anchor="middle" x="170.5116" y="-318.7233" font-family="Times,serif" font-size="14.00" fill="#000000">g3</text>
</g>
<!-- g1&#45;&gt;g3 -->
<g id="edge2" class="edge">
<title>g1&#45;&gt;g3</title>
<path fill="none" stroke="#000000" d="M201.8065,-401.1073C196.5256,-387.9141 189.3961,-370.1023 183.2758,-354.812"/>
<polygon fill="#000000" stroke="#000000" points="186.3947,-353.1854 179.4292,-345.2021 179.896,-355.7867 186.3947,-353.1854"/>
</g>
<!-- g4 -->
<g id="node4" class="node">
<title>g4</title>
<polygon fill="none" stroke="#000000" points="272.9006,-330.1941 249.5116,-346.4521 226.1226,-330.1941 235.0564,-303.8881 263.9668,-303.8881 272.9006,-330.1941"/>
<polygon fill="none" stroke="#000000" points="277.6571,-331.7717 249.5116,-351.336 221.3662,-331.7717 232.2003,-299.8702 266.823,-299.8702 277.6571,-331.7717"/>
<polygon fill="none" stroke="#000000" points="282.4136,-333.3492 249.5116,-356.2198 216.6097,-333.3492 229.3441,-295.8523 269.6792,-295.8523 282.4136,-333.3492"/>
<text text-anchor="middle" x="249.5116" y="-318.7233" font-family="Times,serif" font-size="14.00" fill="#000000">g4</text>
</g>
<!-- g1&#45;&gt;g4 -->
<g id="edge3" class="edge">
<title>g1&#45;&gt;g4</title>
<path fill="none" stroke="#000000" d="M217.4144,-401.1073C222.3721,-389.031 228.9184,-373.0852 234.8054,-358.7455"/>
<polygon fill="#000000" stroke="#000000" points="238.1879,-359.7219 238.748,-349.1419 231.7124,-357.0635 238.1879,-359.7219"/>
</g>
<!-- g5 -->
<g id="node5" class="node">
<title>g5</title>
<polygon fill="none" stroke="#000000" points="362.0694,-330.1636 338.5116,-346.3533 314.9538,-330.1636 323.9521,-303.9681 353.0712,-303.9681 362.0694,-330.1636"/>
<polygon fill="none" stroke="#000000" points="366.8602,-331.7345 338.5116,-351.2166 310.163,-331.7345 321.0753,-299.967 355.948,-299.967 366.8602,-331.7345"/>
<polygon fill="none" stroke="#000000" points="371.651,-333.3054 338.5116,-356.0799 305.3723,-333.3054 318.1985,-295.966 358.8247,-295.966 371.651,-333.3054"/>
<polygon fill="none" stroke="#000000" points="376.4418,-334.8763 338.5116,-360.9432 300.5815,-334.8763 315.3217,-291.965 361.7015,-291.965 376.4418,-334.8763"/>
<text text-anchor="middle" x="338.5116" y="-318.7233" font-family="Times,serif" font-size="14.00" fill="#000000">g5</text>
</g>
<!-- g1&#45;&gt;g5 -->
<g id="edge4" class="edge">
<title>g1&#45;&gt;g5</title>
<path fill="none" stroke="#000000" d="M226.6659,-408.3249C243.3912,-396.5003 269.4579,-377.8231 291.5116,-360.9332 295.9898,-357.5036 300.6595,-353.8386 305.2427,-350.1881"/>
<polygon fill="#000000" stroke="#000000" points="307.7331,-352.6772 313.3393,-343.6871 303.3504,-347.2189 307.7331,-352.6772"/>
</g>
<!-- g6 -->
<g id="node6" class="node">
<title>g6</title>
<polygon fill="none" stroke="#000000" points="143.273,-223.0315 132.3923,-244.814 110.631,-244.814 99.7503,-223.0315 110.631,-201.249 132.3923,-201.249 143.273,-223.0315"/>
<polygon fill="none" stroke="#000000" points="147.7205,-223.0315 134.8509,-248.7958 108.1724,-248.7958 95.3028,-223.0315 108.1724,-197.2671 134.8509,-197.2671 147.7205,-223.0315"/>
<text text-anchor="middle" x="121.5116" y="-218.8315" font-family="Times,serif" font-size="14.00" fill="#000000">g6</text>
</g>
<!-- g3&#45;&gt;g6 -->
<g id="edge5" class="edge">
<title>g3&#45;&gt;g6</title>
<path fill="none" stroke="#000000" d="M159.1469,-299.7551C153.0826,-287.3924 145.494,-271.9221 138.7226,-258.1179"/>
<polygon fill="#000000" stroke="#000000" points="141.7404,-256.3226 134.1941,-248.886 135.4558,-259.4055 141.7404,-256.3226"/>
</g>
<!-- g7 -->
<g id="node7" class="node">
<title>g7</title>
<polygon fill="none" stroke="#000000" points="241.5782,-218.3438 237.4057,-236.1662 220.5116,-244.098 203.6176,-236.1662 199.4451,-218.3438 211.1362,-204.0512 229.8871,-204.0512 241.5782,-218.3438"/>
<text text-anchor="middle" x="220.5116" y="-218.8315" font-family="Times,serif" font-size="14.00" fill="#000000">g7</text>
</g>
<!-- g3&#45;&gt;g7 -->
<g id="edge6" class="edge">
<title>g3&#45;&gt;g7</title>
<path fill="none" stroke="#000000" d="M182.1083,-299.7551C189.6577,-284.6727 199.5221,-264.9652 207.363,-249.3004"/>
<polygon fill="#000000" stroke="#000000" points="210.5985,-250.6557 211.9448,-240.1467 204.3389,-247.5224 210.5985,-250.6557"/>
</g>
<!-- g8 -->
<g id="node8" class="node">
<title>g8</title>
<polygon fill="none" stroke="#000000" points="41.0349,-108.0738 41.0349,-125.0758 29.0127,-137.0981 12.0106,-137.0981 -.0116,-125.0758 -.0116,-108.0738 12.0106,-96.0515 29.0127,-96.0515 41.0349,-108.0738"/>
<text text-anchor="middle" x="20.5116" y="-112.3748" font-family="Times,serif" font-size="14.00" fill="#000000">g8</text>
</g>
<!-- g6&#45;&gt;g8 -->
<g id="edge7" class="edge">
<title>g6&#45;&gt;g8</title>
<path fill="none" stroke="#000000" d="M102.2008,-208.4877C87.181,-196.6581 66.3094,-179.0475 50.5116,-161.1496 45.7836,-155.793 41.1992,-149.6515 37.0958,-143.6743"/>
<polygon fill="#000000" stroke="#000000" points="39.8965,-141.5638 31.4673,-135.1451 34.054,-145.4194 39.8965,-141.5638"/>
</g>
<!-- g9 -->
<g id="node9" class="node">
<title>g9</title>
<polygon fill="none" stroke="#000000" points="97.3934,-106.4076 99.846,-120.1058 92.7839,-132.1518 79.5116,-136.9091 66.2393,-132.1518 59.1773,-120.1058 61.6299,-106.4076 72.4496,-97.4668 86.5737,-97.4668 97.3934,-106.4076"/>
<text text-anchor="middle" x="79.5116" y="-112.3748" font-family="Times,serif" font-size="14.00" fill="#000000">g9</text>
</g>
<!-- g6&#45;&gt;g9 -->
<g id="edge8" class="edge">
<title>g6&#45;&gt;g9</title>
<path fill="none" stroke="#000000" d="M111.3446,-197.2613C104.9915,-181.1582 96.8169,-160.4381 90.3423,-144.0272"/>
<polygon fill="#000000" stroke="#000000" points="93.488,-142.4635 86.5622,-134.4458 86.9765,-145.0325 93.488,-142.4635"/>
</g>
<!-- g10 -->
<g id="node10" class="node">
<title>g10</title>
<polygon fill="none" stroke="#000000" points="183.3965,-101.3612 188.0907,-116.5748 183.3965,-131.7884 171.107,-141.1909 155.9163,-141.1909 143.6267,-131.7884 138.9326,-116.5748 143.6267,-101.3612 155.9163,-91.9587 171.107,-91.9587 183.3965,-101.3612"/>
<polygon fill="none" stroke="#000000" points="186.8414,-98.9547 192.2781,-116.5748 186.8414,-134.1949 172.4603,-145.1976 154.563,-145.1976 140.1819,-134.1949 134.7452,-116.5748 140.1819,-98.9547 154.563,-87.952 172.4603,-87.952 186.8414,-98.9547"/>
<polygon fill="none" stroke="#000000" points="190.2862,-96.5482 196.4654,-116.5748 190.2862,-136.6014 173.8136,-149.2043 153.2097,-149.2043 136.7371,-136.6014 130.5578,-116.5748 136.7371,-96.5482 153.2097,-83.9452 173.8136,-83.9452 190.2862,-96.5482"/>
<polygon fill="none" stroke="#000000" points="193.731,-94.1416 200.6528,-116.5748 193.731,-139.0079 175.1668,-153.2111 151.8564,-153.2111 133.2923,-139.0079 126.3705,-116.5748 133.2923,-94.1416 151.8564,-79.9385 175.1668,-79.9385 193.731,-94.1416"/>
<polygon fill="none" stroke="#000000" points="197.1758,-91.7351 204.8402,-116.5748 197.1758,-141.4145 176.5201,-157.2178 150.5032,-157.2178 129.8475,-141.4145 122.1831,-116.5748 129.8475,-91.7351 150.5032,-75.9318 176.5201,-75.9318 197.1758,-91.7351"/>
<polygon fill="none" stroke="#000000" points="200.6206,-89.3286 209.0275,-116.5748 200.6206,-143.821 177.8734,-161.2245 149.1499,-161.2245 126.4026,-143.821 117.9958,-116.5748 126.4026,-89.3286 149.1499,-71.9251 177.8734,-71.9251 200.6206,-89.3286"/>
<text text-anchor="middle" x="163.5116" y="-112.3748" font-family="Times,serif" font-size="14.00" fill="#000000">g10</text>
</g>
<!-- g6&#45;&gt;g10 -->
<g id="edge9" class="edge">
<title>g6&#45;&gt;g10</title>
<path fill="none" stroke="#000000" d="M131.6787,-197.2613C135.0638,-188.6809 138.9662,-178.7897 142.853,-168.938"/>
<polygon fill="#000000" stroke="#000000" points="146.143,-170.1355 146.5573,-159.5488 139.6314,-167.5665 146.143,-170.1355"/>
</g>
<!-- a1 -->
<g id="node11" class="node">
<title>a1</title>
<polygon fill="none" stroke="#000000" points="283.7027,-134.5748 227.3206,-134.5748 240.8666,-98.5748 270.1567,-98.5748 283.7027,-134.5748"/>
<text text-anchor="middle" x="255.5116" y="-112.3748" font-family="Times,serif" font-size="14.00" fill="#000000">a1</text>
</g>
<!-- g7&#45;&gt;a1 -->
<g id="edge10" class="edge">
<title>g7&#45;&gt;a1</title>
<path fill="none" stroke="#000000" d="M226.7689,-203.9992C232.2358,-187.3712 240.241,-163.0224 246.4157,-144.2413"/>
<polygon fill="#000000" stroke="#000000" points="249.7437,-145.3247 249.5421,-134.7317 243.0939,-143.1383 249.7437,-145.3247"/>
</g>
<!-- a2 -->
<g id="node12" class="node">
<title>a2</title>
<polygon fill="none" stroke="#000000" points="282.5116,-36 238.3798,-36 228.5116,0 272.6435,0 282.5116,-36"/>
<text text-anchor="middle" x="255.5116" y="-13.8" font-family="Times,serif" font-size="14.00" fill="#000000">a2</text>
</g>
<!-- a1&#45;&gt;a2 -->
<g id="edge11" class="edge">
<title>a1&#45;&gt;a2</title>
<path fill="none" stroke="#000000" d="M255.5116,-98.4947C255.5116,-83.9957 255.5116,-63.376 255.5116,-46.6362"/>
<polygon fill="#000000" stroke="#000000" points="259.0117,-46.2993 255.5116,-36.2993 252.0117,-46.2994 259.0117,-46.2993"/>
</g>
</g>
</svg>
