<?xml version="1.0" encoding="UTF-8" standalone="no"?>
<!DOCTYPE svg PUBLIC "-//W3C//DTD SVG 1.1//EN"
 "http://www.w3.org/Graphics/SVG/1.1/DTD/svg11.dtd">
<!-- Generated by graphviz version 2.40.1 (20161225.0304)
 -->
<!-- Title: %3 Pages: 1 -->
<svg width="262pt" height="148pt"
 viewBox="0.00 0.00 261.65 148.00" xmlns="http://www.w3.org/2000/svg" xmlns:xlink="http://www.w3.org/1999/xlink">
<g id="graph0" class="graph" transform="scale(1 1) rotate(0) translate(4 144)">
<title>%3</title>
<!-- struct1 -->
<g id="node1" class="node">
<title>struct1</title>
<polygon fill="none" stroke="#000000" points="36.8672,-103.5 36.8672,-139.5 172.3467,-139.5 172.3467,-103.5 36.8672,-103.5"/>
<text text-anchor="middle" x="54.1948" y="-117.3" font-family="Times,serif" font-size="14.00" fill="#000000">left</text>
<polyline fill="none" stroke="#000000" points="71.5225,-103.5 71.5225,-139.5 "/>
<text text-anchor="middle" x="100.7139" y="-117.3" font-family="Times,serif" font-size="14.00" fill="#000000">mid dle</text>
<polyline fill="none" stroke="#000000" points="129.9053,-103.5 129.9053,-139.5 "/>
<text text-anchor="middle" x="151.126" y="-117.3" font-family="Times,serif" font-size="14.00" fill="#000000">right</text>
</g>
<!-- struct2 -->
<g id="node2" class="node">
<title>struct2</title>
<polygon fill="none" stroke="#000000" points="0,-15.5 0,-51.5 73.2139,-51.5 73.2139,-15.5 0,-15.5"/>
<text text-anchor="middle" x="18.1069" y="-29.3" font-family="Times,serif" font-size="14.00" fill="#000000">one</text>
<polyline fill="none" stroke="#000000" points="36.2139,-15.5 36.2139,-51.5 "/>
<text text-anchor="middle" x="54.7139" y="-29.3" font-family="Times,serif" font-size="14.00" fill="#000000">two</text>
</g>
<!-- struct1&#45;&gt;struct2 -->
<g id="edge1" class="edge">
<title>struct1&#45;&gt;struct2</title>
<path fill="none" stroke="#000000" d="M90.5173,-103.2663C80.8527,-90.7592 67.8741,-73.9634 57.0731,-59.9857"/>
<polygon fill="#000000" stroke="#000000" points="59.5625,-57.4831 50.6785,-51.7103 54.0235,-61.7632 59.5625,-57.4831"/>
</g>
<!-- struct3 -->
<g id="node3" class="node">
<title>struct3</title>
<polygon fill="none" stroke="#000000" points="91.562,-.5 91.562,-66.5 253.6519,-66.5 253.6519,-.5 91.562,-.5"/>
<text text-anchor="middle" x="115.8931" y="-36.3" font-family="Times,serif" font-size="14.00" fill="#000000">hello</text>
<text text-anchor="middle" x="115.8931" y="-22.3" font-family="Times,serif" font-size="14.00" fill="#000000">world</text>
<polyline fill="none" stroke="#000000" points="140.2241,-.5 140.2241,-66.5 "/>
<text text-anchor="middle" x="173.938" y="-51.3" font-family="Times,serif" font-size="14.00" fill="#000000">b</text>
<polyline fill="none" stroke="#000000" points="140.2241,-44.5 207.6519,-44.5 "/>
<text text-anchor="middle" x="151.3311" y="-29.3" font-family="Times,serif" font-size="14.00" fill="#000000">c</text>
<polyline fill="none" stroke="#000000" points="162.438,-22.5 162.438,-44.5 "/>
<text text-anchor="middle" x="173.938" y="-29.3" font-family="Times,serif" font-size="14.00" fill="#000000">d</text>
<polyline fill="none" stroke="#000000" points="185.438,-22.5 185.438,-44.5 "/>
<text text-anchor="middle" x="196.5449" y="-29.3" font-family="Times,serif" font-size="14.00" fill="#000000">e</text>
<polyline fill="none" stroke="#000000" points="140.2241,-22.5 207.6519,-22.5 "/>
<text text-anchor="middle" x="173.938" y="-7.3" font-family="Times,serif" font-size="14.00" fill="#000000">f</text>
<polyline fill="none" stroke="#000000" points="207.6519,-.5 207.6519,-66.5 "/>
<text text-anchor="middle" x="219.1519" y="-29.3" font-family="Times,serif" font-size="14.00" fill="#000000">g</text>
<polyline fill="none" stroke="#000000" points="230.6519,-.5 230.6519,-66.5 "/>
<text text-anchor="middle" x="242.1519" y="-29.3" font-family="Times,serif" font-size="14.00" fill="#000000">h</text>
</g>
<!-- struct1&#45;&gt;struct3 -->
<g id="edge2" class="edge">
<title>struct1&#45;&gt;struct3</title>
<path fill="none" stroke="#000000" d="M118.6966,-103.2663C125.1427,-94.9243 133.0631,-84.6744 140.8283,-74.6253"/>
<polygon fill="#000000" stroke="#000000" points="143.6464,-76.7025 146.9914,-66.6495 138.1074,-72.4223 143.6464,-76.7025"/>
</g>
</g>
</svg>
