<?xml version="1.0" encoding="UTF-8" standalone="no"?>
<!DOCTYPE svg PUBLIC "-//W3C//DTD SVG 1.1//EN"
 "http://www.w3.org/Graphics/SVG/1.1/DTD/svg11.dtd">
<!-- Generated by graphviz version 2.40.1 (20161225.0304)
 -->
<!-- Title: %3 Pages: 1 -->
<svg width="296pt" height="268pt"
 viewBox="0.00 0.00 295.64 267.92" xmlns="http://www.w3.org/2000/svg" xmlns:xlink="http://www.w3.org/1999/xlink">
<g id="graph0" class="graph" transform="scale(1 1) rotate(0) translate(4 263.9248)">
<title>%3</title>
<!-- main -->
<g id="node1" class="node">
<title>main</title>
<polygon fill="none" stroke="#000000" points="135.7656,-259.9248 87.7656,-259.9248 87.7656,-223.9248 141.7656,-223.9248 141.7656,-253.9248 135.7656,-259.9248"/>
<polyline fill="none" stroke="#000000" points="135.7656,-259.9248 135.7656,-253.9248 "/>
<polyline fill="none" stroke="#000000" points="141.7656,-253.9248 135.7656,-253.9248 "/>
<text text-anchor="middle" x="114.7656" y="-237.7248" font-family="Times,serif" font-size="14.00" fill="#000000">main</text>
</g>
<!-- parse -->
<g id="node2" class="node">
<title>parse</title>
<polygon fill="none" stroke="#000000" points="164.7656,-187.9248 116.7656,-187.9248 116.7656,-151.9248 170.7656,-151.9248 170.7656,-181.9248 164.7656,-187.9248"/>
<polyline fill="none" stroke="#000000" points="164.7656,-187.9248 164.7656,-181.9248 "/>
<polyline fill="none" stroke="#000000" points="170.7656,-181.9248 164.7656,-181.9248 "/>
<text text-anchor="middle" x="143.7656" y="-165.7248" font-family="Times,serif" font-size="14.00" fill="#000000">parse</text>
</g>
<!-- main&#45;&gt;parse -->
<g id="edge1" class="edge">
<title>main&#45;&gt;parse</title>
<path fill="none" stroke="#000000" d="M122.0835,-223.7561C125.2533,-215.8865 129.0356,-206.4959 132.5469,-197.778"/>
<polygon fill="#000000" stroke="#000000" points="136.3492,-188.338 136.7871,-199.2952 134.4811,-192.976 132.613,-197.6139 132.613,-197.6139 132.613,-197.6139 134.4811,-192.976 128.4389,-195.9326 136.3492,-188.338 136.3492,-188.338"/>
</g>
<!-- init -->
<g id="node4" class="node">
<title>init</title>
<polygon fill="none" stroke="#000000" points="256.7656,-115.9248 208.7656,-115.9248 208.7656,-79.9248 262.7656,-79.9248 262.7656,-109.9248 256.7656,-115.9248"/>
<polyline fill="none" stroke="#000000" points="256.7656,-115.9248 256.7656,-109.9248 "/>
<polyline fill="none" stroke="#000000" points="262.7656,-109.9248 256.7656,-109.9248 "/>
<text text-anchor="middle" x="235.7656" y="-93.7248" font-family="Times,serif" font-size="14.00" fill="#000000">init</text>
</g>
<!-- main&#45;&gt;init -->
<g id="edge3" class="edge">
<title>main:se&#45;&gt;init:n</title>
<path fill="none" stroke="#000000" d="M132.7656,-223.9248C177.1027,-179.5877 229.6574,-181.838 235.273,-126.1851"/>
<polygon fill="#000000" stroke="#000000" points="235.7656,-115.9248 239.7808,-126.1291 235.5258,-120.919 235.2859,-125.9133 235.2859,-125.9133 235.2859,-125.9133 235.5258,-120.919 230.7911,-125.6974 235.7656,-115.9248 235.7656,-115.9248"/>
</g>
<!-- cleanup -->
<g id="node5" class="node">
<title>cleanup</title>
<polygon fill="none" stroke="#000000" points="53.2987,-187.9248 .2325,-187.9248 .2325,-151.9248 59.2987,-151.9248 59.2987,-181.9248 53.2987,-187.9248"/>
<polyline fill="none" stroke="#000000" points="53.2987,-187.9248 53.2987,-181.9248 "/>
<polyline fill="none" stroke="#000000" points="59.2987,-181.9248 53.2987,-181.9248 "/>
<text text-anchor="middle" x="29.7656" y="-165.7248" font-family="Times,serif" font-size="14.00" fill="#000000">cleanup</text>
</g>
<!-- main&#45;&gt;cleanup -->
<g id="edge4" class="edge">
<title>main&#45;&gt;cleanup</title>
<path fill="none" stroke="#000000" d="M93.3165,-223.7561C82.9478,-214.9732 70.3427,-204.296 59.1011,-194.7736"/>
<polygon fill="#000000" stroke="#000000" points="51.2079,-188.0876 61.7469,-191.1174 55.0231,-191.3193 58.8383,-194.5511 58.8383,-194.5511 58.8383,-194.5511 55.0231,-191.3193 55.9298,-197.9848 51.2079,-188.0876 51.2079,-188.0876"/>
</g>
<!-- printf -->
<g id="node7" class="node">
<title>printf</title>
<polygon fill="none" stroke="#000000" points="88.7656,-43.9248 40.7656,-43.9248 40.7656,-7.9248 94.7656,-7.9248 94.7656,-37.9248 88.7656,-43.9248"/>
<polyline fill="none" stroke="#000000" points="88.7656,-43.9248 88.7656,-37.9248 "/>
<polyline fill="none" stroke="#000000" points="94.7656,-37.9248 88.7656,-37.9248 "/>
<text text-anchor="middle" x="67.7656" y="-21.7248" font-family="Times,serif" font-size="14.00" fill="#000000">printf</text>
</g>
<!-- main&#45;&gt;printf -->
<g id="edge8" class="edge">
<title>main&#45;&gt;printf:s</title>
<path fill="none" stroke="#000000" d="M112.1082,-223.4604C110.6752,-213.0426 108.9607,-199.776 107.7656,-187.9248 105.7537,-167.9739 109.4464,-21.5835 94.7656,-7.9248 89.4119,-2.9438 80.5569,.4227 74.4559,-.4227"/>
<polygon fill="#000000" stroke="#000000" points="67.7656,-7.9248 71.0628,2.5337 71.0935,-4.1931 74.4214,-.4614 74.4214,-.4614 74.4214,-.4614 71.0935,-4.1931 77.7799,-3.4565 67.7656,-7.9248 67.7656,-7.9248"/>
</g>
<!-- execute -->
<g id="node3" class="node">
<title>execute</title>
<polygon fill="none" stroke="#000000" points="168.0113,-115.9248 115.52,-115.9248 115.52,-79.9248 174.0113,-79.9248 174.0113,-109.9248 168.0113,-115.9248"/>
<polyline fill="none" stroke="#000000" points="168.0113,-115.9248 168.0113,-109.9248 "/>
<polyline fill="none" stroke="#000000" points="174.0113,-109.9248 168.0113,-109.9248 "/>
<text text-anchor="middle" x="144.7656" y="-93.7248" font-family="Times,serif" font-size="14.00" fill="#000000">execute</text>
</g>
<!-- parse&#45;&gt;execute -->
<g id="edge2" class="edge">
<title>parse&#45;&gt;execute</title>
<path fill="none" stroke="#000000" d="M144.018,-151.7561C144.1249,-144.0557 144.2521,-134.8991 144.3709,-126.3414"/>
<polygon fill="#000000" stroke="#000000" points="144.5099,-116.338 148.8705,-126.3996 144.4404,-121.3375 144.3709,-126.3371 144.3709,-126.3371 144.3709,-126.3371 144.4404,-121.3375 139.8713,-126.2745 144.5099,-116.338 144.5099,-116.338"/>
</g>
<!-- make_string -->
<g id="node6" class="node">
<title>make_string</title>
<polygon fill="none" stroke="#000000" points="274.4729,-43.9248 195.0583,-43.9248 195.0583,-7.9248 280.4729,-7.9248 280.4729,-37.9248 274.4729,-43.9248"/>
<polyline fill="none" stroke="#000000" points="274.4729,-43.9248 274.4729,-37.9248 "/>
<polyline fill="none" stroke="#000000" points="280.4729,-37.9248 274.4729,-37.9248 "/>
<text text-anchor="middle" x="237.7656" y="-21.7248" font-family="Times,serif" font-size="14.00" fill="#000000">make_string</text>
</g>
<!-- execute&#45;&gt;make_string -->
<g id="edge5" class="edge">
<title>execute:sw&#45;&gt;make_string</title>
<path fill="none" stroke="#000000" d="M126.7656,-79.9248C121.5471,-74.7063 154.0832,-59.4688 185.2544,-46.5055"/>
<polygon fill="#000000" stroke="#000000" points="194.841,-42.569 187.2999,-50.5302 190.2158,-44.4682 185.5905,-46.3675 185.5905,-46.3675 185.5905,-46.3675 190.2158,-44.4682 183.8812,-42.2047 194.841,-42.569 194.841,-42.569"/>
</g>
<!-- execute&#45;&gt;printf -->
<g id="edge6" class="edge">
<title>execute:nw&#45;&gt;printf:nw</title>
<path fill="none" stroke="#000000" d="M126.7656,-115.9248C105.3545,-137.3359 117.0222,-100.4005 100.7656,-79.9248 87.0182,-62.6093 50.3372,-62.488 45.9303,-53.2257"/>
<polygon fill="#000000" stroke="#000000" points="49.7656,-43.9248 50.1135,-54.8851 47.8595,-48.5472 45.9533,-53.1696 45.9533,-53.1696 45.9533,-53.1696 47.8595,-48.5472 41.7932,-51.4541 49.7656,-43.9248 49.7656,-43.9248"/>
</g>
<!-- compare -->
<g id="node8" class="node">
<title>compare</title>
<polygon fill="none" stroke="#000000" points="170.9593,-43.9248 112.572,-43.9248 112.572,-7.9248 176.9593,-7.9248 176.9593,-37.9248 170.9593,-43.9248"/>
<polyline fill="none" stroke="#000000" points="170.9593,-43.9248 170.9593,-37.9248 "/>
<polyline fill="none" stroke="#000000" points="176.9593,-37.9248 170.9593,-37.9248 "/>
<text text-anchor="middle" x="144.7656" y="-21.7248" font-family="Times,serif" font-size="14.00" fill="#000000">compare</text>
</g>
<!-- execute&#45;&gt;compare -->
<g id="edge9" class="edge">
<title>execute&#45;&gt;compare</title>
<path fill="none" stroke="#000000" d="M144.7656,-79.7561C144.7656,-72.0557 144.7656,-62.8991 144.7656,-54.3414"/>
<polygon fill="#000000" stroke="#000000" points="144.7656,-44.338 149.2657,-54.338 144.7657,-49.338 144.7657,-54.338 144.7657,-54.338 144.7657,-54.338 144.7657,-49.338 140.2657,-54.3381 144.7656,-44.338 144.7656,-44.338"/>
</g>
<!-- init&#45;&gt;make_string -->
<g id="edge7" class="edge">
<title>init:e&#45;&gt;make_string:e</title>
<path fill="none" stroke="#000000" d="M262.7656,-97.9248C275.8436,-97.9248 289.8695,-52.6512 286.8932,-33.9051"/>
<polygon fill="#000000" stroke="#000000" points="280.7656,-25.9248 290.425,-31.1158 283.8107,-29.8906 286.8558,-33.8564 286.8558,-33.8564 286.8558,-33.8564 283.8107,-29.8906 283.2866,-36.597 280.7656,-25.9248 280.7656,-25.9248"/>
</g>
</g>
</svg>
