<?xml version="1.0" encoding="UTF-8" standalone="no"?>
<!DOCTYPE svg PUBLIC "-//W3C//DTD SVG 1.1//EN"
 "http://www.w3.org/Graphics/SVG/1.1/DTD/svg11.dtd">
<!-- Generated by graphviz version 2.40.1 (20161225.0304)
 -->
<!-- Title: %3 Pages: 1 -->
<svg width="361pt" height="208pt"
 viewBox="0.00 0.00 361.11 208.00" xmlns="http://www.w3.org/2000/svg" xmlns:xlink="http://www.w3.org/1999/xlink">
<g id="graph0" class="graph" transform="scale(1 1) rotate(0) translate(4 204)">
<title>%3</title>
<!-- node0 -->
<g id="node1" class="node">
<title>node0</title>
<polygon fill="none" stroke="#000000" points="164,-177.5 164,-199.5 229.1104,-199.5 229.1104,-177.5 164,-177.5"/>
<text text-anchor="middle" x="173.75" y="-184.3" font-family="Times,serif" font-size="14.00" fill="#000000"> </text>
<polyline fill="none" stroke="#000000" points="183.5,-177.5 183.5,-199.5 "/>
<text text-anchor="middle" x="196.5552" y="-184.3" font-family="Times,serif" font-size="14.00" fill="#000000">G</text>
<polyline fill="none" stroke="#000000" points="209.6104,-177.5 209.6104,-199.5 "/>
<text text-anchor="middle" x="219.3604" y="-184.3" font-family="Times,serif" font-size="14.00" fill="#000000"> </text>
</g>
<!-- node1 -->
<g id="node2" class="node">
<title>node1</title>
<polygon fill="none" stroke="#000000" points="101.7793,-118.5 101.7793,-140.5 165.3311,-140.5 165.3311,-118.5 101.7793,-118.5"/>
<text text-anchor="middle" x="111.5293" y="-125.3" font-family="Times,serif" font-size="14.00" fill="#000000"> </text>
<polyline fill="none" stroke="#000000" points="121.2793,-118.5 121.2793,-140.5 "/>
<text text-anchor="middle" x="133.5552" y="-125.3" font-family="Times,serif" font-size="14.00" fill="#000000">E</text>
<polyline fill="none" stroke="#000000" points="145.8311,-118.5 145.8311,-140.5 "/>
<text text-anchor="middle" x="155.5811" y="-125.3" font-family="Times,serif" font-size="14.00" fill="#000000"> </text>
</g>
<!-- node0&#45;&gt;node1 -->
<g id="edge2" class="edge">
<title>node0:f0&#45;&gt;node1:f1</title>
<path fill="none" stroke="#000000" d="M173.5552,-177.5C173.5552,-157.4452 146.1235,-161.8398 136.6939,-150.1895"/>
<polygon fill="#000000" stroke="#000000" points="139.9666,-148.9347 133.5552,-140.5 133.3073,-151.0919 139.9666,-148.9347"/>
</g>
<!-- node4 -->
<g id="node5" class="node">
<title>node4</title>
<polygon fill="none" stroke="#000000" points="227.3862,-118.5 227.3862,-140.5 291.7241,-140.5 291.7241,-118.5 227.3862,-118.5"/>
<text text-anchor="middle" x="237.1362" y="-125.3" font-family="Times,serif" font-size="14.00" fill="#000000"> </text>
<polyline fill="none" stroke="#000000" points="246.8862,-118.5 246.8862,-140.5 "/>
<text text-anchor="middle" x="259.5552" y="-125.3" font-family="Times,serif" font-size="14.00" fill="#000000">R</text>
<polyline fill="none" stroke="#000000" points="272.2241,-118.5 272.2241,-140.5 "/>
<text text-anchor="middle" x="281.9741" y="-125.3" font-family="Times,serif" font-size="14.00" fill="#000000"> </text>
</g>
<!-- node0&#45;&gt;node4 -->
<g id="edge1" class="edge">
<title>node0:f2&#45;&gt;node4:f1</title>
<path fill="none" stroke="#000000" d="M219.5552,-177.5C219.5552,-157.4452 246.9868,-161.8398 256.4164,-150.1895"/>
<polygon fill="#000000" stroke="#000000" points="259.8031,-151.0919 259.5552,-140.5 253.1438,-148.9347 259.8031,-151.0919"/>
</g>
<!-- node2 -->
<g id="node3" class="node">
<title>node2</title>
<polygon fill="none" stroke="#000000" points="41.3862,-59.5 41.3862,-81.5 105.7241,-81.5 105.7241,-59.5 41.3862,-59.5"/>
<text text-anchor="middle" x="51.1362" y="-66.3" font-family="Times,serif" font-size="14.00" fill="#000000"> </text>
<polyline fill="none" stroke="#000000" points="60.8862,-59.5 60.8862,-81.5 "/>
<text text-anchor="middle" x="73.5552" y="-66.3" font-family="Times,serif" font-size="14.00" fill="#000000">B</text>
<polyline fill="none" stroke="#000000" points="86.2241,-59.5 86.2241,-81.5 "/>
<text text-anchor="middle" x="95.9741" y="-66.3" font-family="Times,serif" font-size="14.00" fill="#000000"> </text>
</g>
<!-- node1&#45;&gt;node2 -->
<g id="edge3" class="edge">
<title>node1:f0&#45;&gt;node2:f1</title>
<path fill="none" stroke="#000000" d="M111.5552,-118.5C111.5552,-99.1633 85.9845,-102.5152 76.795,-91.3323"/>
<polygon fill="#000000" stroke="#000000" points="80.009,-89.9023 73.5552,-81.5 73.3607,-92.0931 80.009,-89.9023"/>
</g>
<!-- node3 -->
<g id="node4" class="node">
<title>node3</title>
<polygon fill="none" stroke="#000000" points="124.1621,-59.5 124.1621,-81.5 186.9482,-81.5 186.9482,-59.5 124.1621,-59.5"/>
<text text-anchor="middle" x="133.9121" y="-66.3" font-family="Times,serif" font-size="14.00" fill="#000000"> </text>
<polyline fill="none" stroke="#000000" points="143.6621,-59.5 143.6621,-81.5 "/>
<text text-anchor="middle" x="155.5552" y="-66.3" font-family="Times,serif" font-size="14.00" fill="#000000">F</text>
<polyline fill="none" stroke="#000000" points="167.4482,-59.5 167.4482,-81.5 "/>
<text text-anchor="middle" x="177.1982" y="-66.3" font-family="Times,serif" font-size="14.00" fill="#000000"> </text>
</g>
<!-- node1&#45;&gt;node3 -->
<g id="edge4" class="edge">
<title>node1:f2&#45;&gt;node3:f1</title>
<path fill="none" stroke="#000000" d="M155.5552,-118.5C155.5552,-106.0382 155.5552,-100.6592 155.5552,-91.6281"/>
<polygon fill="#000000" stroke="#000000" points="159.0553,-91.5 155.5552,-81.5 152.0553,-91.5 159.0553,-91.5"/>
</g>
<!-- node7 -->
<g id="node8" class="node">
<title>node7</title>
<polygon fill="none" stroke="#000000" points="0,-.5 0,-22.5 65.1104,-22.5 65.1104,-.5 0,-.5"/>
<text text-anchor="middle" x="9.75" y="-7.3" font-family="Times,serif" font-size="14.00" fill="#000000"> </text>
<polyline fill="none" stroke="#000000" points="19.5,-.5 19.5,-22.5 "/>
<text text-anchor="middle" x="32.5552" y="-7.3" font-family="Times,serif" font-size="14.00" fill="#000000">A</text>
<polyline fill="none" stroke="#000000" points="45.6104,-.5 45.6104,-22.5 "/>
<text text-anchor="middle" x="55.3604" y="-7.3" font-family="Times,serif" font-size="14.00" fill="#000000"> </text>
</g>
<!-- node2&#45;&gt;node7 -->
<g id="edge6" class="edge">
<title>node2:f0&#45;&gt;node7:f1</title>
<path fill="none" stroke="#000000" d="M51.5552,-59.5C51.5552,-45.0579 39.9585,-41.8815 34.8849,-32.3681"/>
<polygon fill="#000000" stroke="#000000" points="38.2594,-31.4282 32.5552,-22.5 31.4466,-33.0367 38.2594,-31.4282"/>
</g>
<!-- node8 -->
<g id="node9" class="node">
<title>node8</title>
<polygon fill="none" stroke="#000000" points="83.3862,-.5 83.3862,-22.5 147.7241,-22.5 147.7241,-.5 83.3862,-.5"/>
<text text-anchor="middle" x="93.1362" y="-7.3" font-family="Times,serif" font-size="14.00" fill="#000000"> </text>
<polyline fill="none" stroke="#000000" points="102.8862,-.5 102.8862,-22.5 "/>
<text text-anchor="middle" x="115.5552" y="-7.3" font-family="Times,serif" font-size="14.00" fill="#000000">C</text>
<polyline fill="none" stroke="#000000" points="128.2241,-.5 128.2241,-22.5 "/>
<text text-anchor="middle" x="137.9741" y="-7.3" font-family="Times,serif" font-size="14.00" fill="#000000"> </text>
</g>
<!-- node2&#45;&gt;node8 -->
<g id="edge5" class="edge">
<title>node2:f2&#45;&gt;node8:f1</title>
<path fill="none" stroke="#000000" d="M95.5552,-59.5C95.5552,-44.896 107.7622,-41.9371 113.1028,-32.4279"/>
<polygon fill="#000000" stroke="#000000" points="116.5548,-33.0476 115.5552,-22.5 109.7591,-31.3688 116.5548,-33.0476"/>
</g>
<!-- node5 -->
<g id="node6" class="node">
<title>node5</title>
<polygon fill="none" stroke="#000000" points="205,-59.5 205,-81.5 270.1104,-81.5 270.1104,-59.5 205,-59.5"/>
<text text-anchor="middle" x="214.75" y="-66.3" font-family="Times,serif" font-size="14.00" fill="#000000"> </text>
<polyline fill="none" stroke="#000000" points="224.5,-59.5 224.5,-81.5 "/>
<text text-anchor="middle" x="237.5552" y="-66.3" font-family="Times,serif" font-size="14.00" fill="#000000">H</text>
<polyline fill="none" stroke="#000000" points="250.6104,-59.5 250.6104,-81.5 "/>
<text text-anchor="middle" x="260.3604" y="-66.3" font-family="Times,serif" font-size="14.00" fill="#000000"> </text>
</g>
<!-- node4&#45;&gt;node5 -->
<g id="edge8" class="edge">
<title>node4:f0&#45;&gt;node5:f1</title>
<path fill="none" stroke="#000000" d="M237.5552,-118.5C237.5552,-106.0382 237.5552,-100.6592 237.5552,-91.6281"/>
<polygon fill="#000000" stroke="#000000" points="241.0553,-91.5 237.5552,-81.5 234.0553,-91.5 241.0553,-91.5"/>
</g>
<!-- node6 -->
<g id="node7" class="node">
<title>node6</title>
<polygon fill="none" stroke="#000000" points="288,-59.5 288,-81.5 353.1104,-81.5 353.1104,-59.5 288,-59.5"/>
<text text-anchor="middle" x="297.75" y="-66.3" font-family="Times,serif" font-size="14.00" fill="#000000"> </text>
<polyline fill="none" stroke="#000000" points="307.5,-59.5 307.5,-81.5 "/>
<text text-anchor="middle" x="320.5552" y="-66.3" font-family="Times,serif" font-size="14.00" fill="#000000">Y</text>
<polyline fill="none" stroke="#000000" points="333.6104,-59.5 333.6104,-81.5 "/>
<text text-anchor="middle" x="343.3604" y="-66.3" font-family="Times,serif" font-size="14.00" fill="#000000"> </text>
</g>
<!-- node4&#45;&gt;node6 -->
<g id="edge7" class="edge">
<title>node4:f2&#45;&gt;node6:f1</title>
<path fill="none" stroke="#000000" d="M281.5552,-118.5C281.5552,-98.7138 308.301,-102.7097 317.4949,-91.0986"/>
<polygon fill="#000000" stroke="#000000" points="320.8521,-92.0907 320.5552,-81.5 314.1829,-89.9643 320.8521,-92.0907"/>
</g>
</g>
</svg>
