<?xml version="1.0" encoding="UTF-8" standalone="no"?>
<!DOCTYPE svg PUBLIC "-//W3C//DTD SVG 1.1//EN"
 "http://www.w3.org/Graphics/SVG/1.1/DTD/svg11.dtd">
<!-- Generated by graphviz version 2.40.1 (20161225.0304)
 -->
<!-- Title: %3 Pages: 1 -->
<svg width="262pt" height="148pt"
 viewBox="0.00 0.00 261.65 148.00" xmlns="http://www.w3.org/2000/svg" xmlns:xlink="http://www.w3.org/1999/xlink">
<g id="graph0" class="graph" transform="scale(1 1) rotate(0) translate(4 144)">
<title>%3</title>
<!-- struct1 -->
<g id="node1" class="node">
<title>struct1</title>
<polygon fill="none" stroke="#000000" points="8.6172,-103.5 8.6172,-139.5 140.5967,-139.5 140.5967,-103.5 8.6172,-103.5"/>
<text text-anchor="middle" x="25.9448" y="-117.3" font-family="Times,serif" font-size="14.00" fill="#000000">left</text>
<polyline fill="none" stroke="#000000" points="43.2725,-103.5 43.2725,-139.5 "/>
<text text-anchor="middle" x="70.7139" y="-117.3" font-family="Times,serif" font-size="14.00" fill="#000000">middle</text>
<polyline fill="none" stroke="#000000" points="98.1553,-103.5 98.1553,-139.5 "/>
<text text-anchor="middle" x="119.376" y="-117.3" font-family="Times,serif" font-size="14.00" fill="#000000">right</text>
</g>
<!-- struct2 -->
<g id="node2" class="node">
<title>struct2</title>
<polygon fill="none" stroke="#000000" points="0,-15.5 0,-51.5 73.2139,-51.5 73.2139,-15.5 0,-15.5"/>
<text text-anchor="middle" x="18.1069" y="-29.3" font-family="Times,serif" font-size="14.00" fill="#000000">one</text>
<polyline fill="none" stroke="#000000" points="36.2139,-15.5 36.2139,-51.5 "/>
<text text-anchor="middle" x="54.7139" y="-29.3" font-family="Times,serif" font-size="14.00" fill="#000000">two</text>
</g>
<!-- struct1&#45;&gt;struct2 -->
<g id="edge1" class="edge">
<title>struct1:f1&#45;&gt;struct2:f0</title>
<path fill="none" stroke="#000000" d="M70.6069,-103.5C70.6069,-74.3674 29.301,-81.8641 19.6199,-61.3165"/>
<polygon fill="#000000" stroke="#000000" points="23.0445,-60.5931 17.6069,-51.5 16.1871,-61.9993 23.0445,-60.5931"/>
</g>
<!-- struct3 -->
<g id="node3" class="node">
<title>struct3</title>
<polygon fill="none" stroke="#000000" points="91.562,-.5 91.562,-66.5 253.6519,-66.5 253.6519,-.5 91.562,-.5"/>
<text text-anchor="middle" x="115.8931" y="-36.3" font-family="Times,serif" font-size="14.00" fill="#000000">hello</text>
<text text-anchor="middle" x="115.8931" y="-22.3" font-family="Times,serif" font-size="14.00" fill="#000000">world</text>
<polyline fill="none" stroke="#000000" points="140.2241,-.5 140.2241,-66.5 "/>
<text text-anchor="middle" x="173.938" y="-51.3" font-family="Times,serif" font-size="14.00" fill="#000000">b</text>
<polyline fill="none" stroke="#000000" points="140.2241,-44.5 207.6519,-44.5 "/>
<text text-anchor="middle" x="151.3311" y="-29.3" font-family="Times,serif" font-size="14.00" fill="#000000">c</text>
<polyline fill="none" stroke="#000000" points="162.438,-22.5 162.438,-44.5 "/>
<text text-anchor="middle" x="173.938" y="-29.3" font-family="Times,serif" font-size="14.00" fill="#000000">d</text>
<polyline fill="none" stroke="#000000" points="185.438,-22.5 185.438,-44.5 "/>
<text text-anchor="middle" x="196.5449" y="-29.3" font-family="Times,serif" font-size="14.00" fill="#000000">e</text>
<polyline fill="none" stroke="#000000" points="140.2241,-22.5 207.6519,-22.5 "/>
<text text-anchor="middle" x="173.938" y="-7.3" font-family="Times,serif" font-size="14.00" fill="#000000">f</text>
<polyline fill="none" stroke="#000000" points="207.6519,-.5 207.6519,-66.5 "/>
<text text-anchor="middle" x="219.1519" y="-29.3" font-family="Times,serif" font-size="14.00" fill="#000000">g</text>
<polyline fill="none" stroke="#000000" points="230.6519,-.5 230.6519,-66.5 "/>
<text text-anchor="middle" x="242.1519" y="-29.3" font-family="Times,serif" font-size="14.00" fill="#000000">h</text>
</g>
<!-- struct1&#45;&gt;struct3 -->
<g id="edge2" class="edge">
<title>struct1:f2&#45;&gt;struct3:here</title>
<path fill="none" stroke="#000000" d="M119.6069,-103.5C119.6069,-91.5628 139.5429,-68.289 155.1884,-51.8619"/>
<polygon fill="#000000" stroke="#000000" points="157.9556,-54.0366 162.4181,-44.4273 152.9372,-49.1564 157.9556,-54.0366"/>
</g>
</g>
</svg>
