<?xml version="1.0" encoding="UTF-8" standalone="no"?>
<!DOCTYPE svg PUBLIC "-//W3C//DTD SVG 1.1//EN"
 "http://www.w3.org/Graphics/SVG/1.1/DTD/svg11.dtd">
<!-- Generated by graphviz version 2.40.1 (20161225.0304)
 -->
<!-- Title: %3 Pages: 1 -->
<svg width="316pt" height="194pt"
 viewBox="0.00 0.00 315.50 194.00" xmlns="http://www.w3.org/2000/svg" xmlns:xlink="http://www.w3.org/1999/xlink">
<g id="graph0" class="graph" transform="scale(1 1) rotate(0) translate(4 190)">
<title>%3</title>
<!-- node0 -->
<g id="node1" class="node">
<title>node0</title>
<polygon fill="none" stroke="#000000" points="0,-.5 0,-180.5 19.5,-180.5 19.5,-.5 0,-.5"/>
<text text-anchor="middle" x="9.75" y="-165.3" font-family="Times,serif" font-size="14.00" fill="#000000"> </text>
<polyline fill="none" stroke="#000000" points="0,-158.5 19.5,-158.5 "/>
<text text-anchor="middle" x="9.75" y="-142.8" font-family="Times,serif" font-size="14.00" fill="#000000"> </text>
<polyline fill="none" stroke="#000000" points="0,-135.5 19.5,-135.5 "/>
<text text-anchor="middle" x="9.75" y="-120.3" font-family="Times,serif" font-size="14.00" fill="#000000"> </text>
<polyline fill="none" stroke="#000000" points="0,-113.5 19.5,-113.5 "/>
<text text-anchor="middle" x="9.75" y="-97.8" font-family="Times,serif" font-size="14.00" fill="#000000"> </text>
<polyline fill="none" stroke="#000000" points="0,-90.5 19.5,-90.5 "/>
<text text-anchor="middle" x="9.75" y="-75.3" font-family="Times,serif" font-size="14.00" fill="#000000"> </text>
<polyline fill="none" stroke="#000000" points="0,-68.5 19.5,-68.5 "/>
<text text-anchor="middle" x="9.75" y="-52.8" font-family="Times,serif" font-size="14.00" fill="#000000"> </text>
<polyline fill="none" stroke="#000000" points="0,-45.5 19.5,-45.5 "/>
<text text-anchor="middle" x="9.75" y="-30.3" font-family="Times,serif" font-size="14.00" fill="#000000"> </text>
<polyline fill="none" stroke="#000000" points="0,-23.5 19.5,-23.5 "/>
<text text-anchor="middle" x="9.75" y="-7.8" font-family="Times,serif" font-size="14.00" fill="#000000"> </text>
</g>
<!-- node1 -->
<g id="node2" class="node">
<title>node1</title>
<polygon fill="none" stroke="#000000" points="55.5,-163.5 55.5,-185.5 163.5,-185.5 163.5,-163.5 55.5,-163.5"/>
<text text-anchor="middle" x="76" y="-170.3" font-family="Times,serif" font-size="14.00" fill="#000000">n14</text>
<polyline fill="none" stroke="#000000" points="96.5,-163.5 96.5,-185.5 "/>
<text text-anchor="middle" x="117.5" y="-170.3" font-family="Times,serif" font-size="14.00" fill="#000000">719</text>
<polyline fill="none" stroke="#000000" points="138.5,-163.5 138.5,-185.5 "/>
<text text-anchor="middle" x="150.75" y="-170.3" font-family="Times,serif" font-size="14.00" fill="#000000"> </text>
</g>
<!-- node0&#45;&gt;node1 -->
<g id="edge1" class="edge">
<title>node0:f0&#45;&gt;node1:n</title>
<path fill="none" stroke="#000000" d="M19.5,-169.5C31.6152,-169.5 36.7212,-172.3125 45.3318,-173.7188"/>
<polygon fill="#000000" stroke="#000000" points="45.2612,-177.2236 55.5,-174.5 45.7975,-170.2441 45.2612,-177.2236"/>
</g>
<!-- node2 -->
<g id="node3" class="node">
<title>node2</title>
<polygon fill="none" stroke="#000000" points="55.5,-136.5 55.5,-158.5 163.5,-158.5 163.5,-136.5 55.5,-136.5"/>
<text text-anchor="middle" x="73.6069" y="-143.3" font-family="Times,serif" font-size="14.00" fill="#000000">a1</text>
<polyline fill="none" stroke="#000000" points="91.7139,-136.5 91.7139,-158.5 "/>
<text text-anchor="middle" x="113.7139" y="-143.3" font-family="Times,serif" font-size="14.00" fill="#000000">805</text>
<polyline fill="none" stroke="#000000" points="135.7139,-136.5 135.7139,-158.5 "/>
<text text-anchor="middle" x="149.4639" y="-143.3" font-family="Times,serif" font-size="14.00" fill="#000000"> </text>
</g>
<!-- node0&#45;&gt;node2 -->
<g id="edge2" class="edge">
<title>node0:f1&#45;&gt;node2:n</title>
<path fill="none" stroke="#000000" d="M19.5,-147.5C31.5,-147.5 36.75,-147.5 45.375,-147.5"/>
<polygon fill="#000000" stroke="#000000" points="45.5,-151.0001 55.5,-147.5 45.5,-144.0001 45.5,-151.0001"/>
</g>
<!-- node3 -->
<g id="node4" class="node">
<title>node3</title>
<polygon fill="none" stroke="#000000" points="55.5,-109.5 55.5,-131.5 163.5,-131.5 163.5,-109.5 55.5,-109.5"/>
<text text-anchor="middle" x="72.9448" y="-116.3" font-family="Times,serif" font-size="14.00" fill="#000000">i9</text>
<polyline fill="none" stroke="#000000" points="90.3896,-109.5 90.3896,-131.5 "/>
<text text-anchor="middle" x="112.8896" y="-116.3" font-family="Times,serif" font-size="14.00" fill="#000000">718</text>
<polyline fill="none" stroke="#000000" points="135.3896,-109.5 135.3896,-131.5 "/>
<text text-anchor="middle" x="149.1396" y="-116.3" font-family="Times,serif" font-size="14.00" fill="#000000"> </text>
</g>
<!-- node0&#45;&gt;node3 -->
<g id="edge3" class="edge">
<title>node0:f2&#45;&gt;node3:n</title>
<path fill="none" stroke="#000000" d="M19.5,-124.5C31.5738,-124.5 36.7315,-122.25 45.3473,-121.125"/>
<polygon fill="#000000" stroke="#000000" points="45.734,-124.6079 55.5,-120.5 45.3038,-117.6211 45.734,-124.6079"/>
</g>
<!-- node4 -->
<g id="node5" class="node">
<title>node4</title>
<polygon fill="none" stroke="#000000" points="55.5,-48.5 55.5,-70.5 163.5,-70.5 163.5,-48.5 55.5,-48.5"/>
<text text-anchor="middle" x="73.6069" y="-55.3" font-family="Times,serif" font-size="14.00" fill="#000000">e5</text>
<polyline fill="none" stroke="#000000" points="91.7139,-48.5 91.7139,-70.5 "/>
<text text-anchor="middle" x="113.7139" y="-55.3" font-family="Times,serif" font-size="14.00" fill="#000000">989</text>
<polyline fill="none" stroke="#000000" points="135.7139,-48.5 135.7139,-70.5 "/>
<text text-anchor="middle" x="149.4639" y="-55.3" font-family="Times,serif" font-size="14.00" fill="#000000"> </text>
</g>
<!-- node0&#45;&gt;node4 -->
<g id="edge4" class="edge">
<title>node0:f5&#45;&gt;node4:n</title>
<path fill="none" stroke="#000000" d="M19.5,-56.5C31.5416,-56.5 36.7396,-58.1875 45.3594,-59.0313"/>
<polygon fill="#000000" stroke="#000000" points="45.349,-62.5344 55.5,-59.5 45.6723,-55.5419 45.349,-62.5344"/>
</g>
<!-- node5 -->
<g id="node6" class="node">
<title>node5</title>
<polygon fill="none" stroke="#000000" points="55.5,-21.5 55.5,-43.5 163.5,-43.5 163.5,-21.5 55.5,-21.5"/>
<text text-anchor="middle" x="74.9448" y="-28.3" font-family="Times,serif" font-size="14.00" fill="#000000">t20</text>
<polyline fill="none" stroke="#000000" points="94.3896,-21.5 94.3896,-43.5 "/>
<text text-anchor="middle" x="115.8896" y="-28.3" font-family="Times,serif" font-size="14.00" fill="#000000">959</text>
<polyline fill="none" stroke="#000000" points="137.3896,-21.5 137.3896,-43.5 "/>
<text text-anchor="middle" x="150.1396" y="-28.3" font-family="Times,serif" font-size="14.00" fill="#000000"> </text>
</g>
<!-- node0&#45;&gt;node5 -->
<g id="edge5" class="edge">
<title>node0:f6&#45;&gt;node5:n</title>
<path fill="none" stroke="#000000" d="M19.5,-34.5C31.5185,-34.5 36.7454,-33.375 45.3681,-32.8125"/>
<polygon fill="#000000" stroke="#000000" points="45.6127,-36.3067 55.5,-32.5 45.3968,-29.31 45.6127,-36.3067"/>
</g>
<!-- node6 -->
<g id="node7" class="node">
<title>node6</title>
<polygon fill="none" stroke="#000000" points="199.5,-136.5 199.5,-158.5 307.5,-158.5 307.5,-136.5 199.5,-136.5"/>
<text text-anchor="middle" x="220" y="-143.3" font-family="Times,serif" font-size="14.00" fill="#000000">o15</text>
<polyline fill="none" stroke="#000000" points="240.5,-136.5 240.5,-158.5 "/>
<text text-anchor="middle" x="261.5" y="-143.3" font-family="Times,serif" font-size="14.00" fill="#000000">794</text>
<polyline fill="none" stroke="#000000" points="282.5,-136.5 282.5,-158.5 "/>
<text text-anchor="middle" x="294.75" y="-143.3" font-family="Times,serif" font-size="14.00" fill="#000000"> </text>
</g>
<!-- node2&#45;&gt;node6 -->
<g id="edge6" class="edge">
<title>node2:p&#45;&gt;node6:n</title>
<path fill="none" stroke="#000000" d="M163.5,-147.5C175.5,-147.5 180.75,-147.5 189.375,-147.5"/>
<polygon fill="#000000" stroke="#000000" points="189.5,-151.0001 199.5,-147.5 189.5,-144.0001 189.5,-151.0001"/>
</g>
<!-- node7 -->
<g id="node8" class="node">
<title>node7</title>
<polygon fill="none" stroke="#000000" points="199.5,-48.5 199.5,-70.5 307.5,-70.5 307.5,-48.5 199.5,-48.5"/>
<text text-anchor="middle" x="219.7241" y="-55.3" font-family="Times,serif" font-size="14.00" fill="#000000">s19</text>
<polyline fill="none" stroke="#000000" points="239.9482,-48.5 239.9482,-70.5 "/>
<text text-anchor="middle" x="260.9482" y="-55.3" font-family="Times,serif" font-size="14.00" fill="#000000">659</text>
<polyline fill="none" stroke="#000000" points="281.9482,-48.5 281.9482,-70.5 "/>
<text text-anchor="middle" x="294.6982" y="-55.3" font-family="Times,serif" font-size="14.00" fill="#000000"> </text>
</g>
<!-- node4&#45;&gt;node7 -->
<g id="edge7" class="edge">
<title>node4:p&#45;&gt;node7:n</title>
<path fill="none" stroke="#000000" d="M163.5,-59.5C175.5,-59.5 180.75,-59.5 189.375,-59.5"/>
<polygon fill="#000000" stroke="#000000" points="189.5,-63.0001 199.5,-59.5 189.5,-56.0001 189.5,-63.0001"/>
</g>
</g>
</svg>
