<?xml version="1.0" encoding="UTF-8" standalone="no"?>
<!DOCTYPE svg PUBLIC "-//W3C//DTD SVG 1.1//EN"
 "http://www.w3.org/Graphics/SVG/1.1/DTD/svg11.dtd">
<!-- Generated by graphviz version 2.40.1 (20161225.0304)
 -->
<!-- Title: %3 Pages: 1 -->
<svg width="224pt" height="406pt"
 viewBox="0.00 0.00 224.00 406.21" xmlns="http://www.w3.org/2000/svg" xmlns:xlink="http://www.w3.org/1999/xlink">
<g id="graph0" class="graph" transform="scale(1 1) rotate(0) translate(4 402.2139)">
<title>%3</title>
<g id="clust1" class="cluster">
<title>cluster0</title>
<polygon fill="transparent" stroke="#000000" stroke-dasharray="1,5" points="8,-64.2139 8,-354.2139 98,-354.2139 98,-64.2139 8,-64.2139"/>
<text text-anchor="middle" x="53" y="-339.0139" font-family="Times,serif" font-size="14.00" fill="#000000">process #1</text>
</g>
<g id="clust2" class="cluster">
<title>cluster1</title>
<polygon fill="transparent" stroke="#0000ff" stroke-dasharray="1,5" points="133,-64.2139 133,-354.2139 208,-354.2139 208,-64.2139 133,-64.2139"/>
<text text-anchor="middle" x="170.5" y="-339.0139" font-family="Times,serif" font-size="14.00" fill="#000000">process #2</text>
</g>
<!-- a0 -->
<g id="node1" class="node">
<title>a0</title>
<ellipse fill="none" stroke="#000000" cx="63" cy="-306.2139" rx="27" ry="18"/>
<text text-anchor="middle" x="63" y="-302.0139" font-family="Times,serif" font-size="14.00" fill="#000000">a0</text>
</g>
<!-- a1 -->
<g id="node2" class="node">
<title>a1</title>
<ellipse fill="none" stroke="#000000" cx="63" cy="-234.2139" rx="27" ry="18"/>
<text text-anchor="middle" x="63" y="-230.0139" font-family="Times,serif" font-size="14.00" fill="#000000">a1</text>
</g>
<!-- a0&#45;&gt;a1 -->
<g id="edge1" class="edge">
<title>a0&#45;&gt;a1</title>
<path fill="none" stroke="#000000" d="M63,-288.0452C63,-281.0218 63,-272.7869 63,-264.9"/>
<polygon fill="#000000" stroke="#000000" points="63.0001,-264.6271 59,-258.6272 63,-252.6271 67,-258.6271 63.0001,-264.6271"/>
</g>
<!-- a2 -->
<g id="node3" class="node">
<title>a2</title>
<ellipse fill="none" stroke="#000000" cx="63" cy="-162.2139" rx="27" ry="18"/>
<text text-anchor="middle" x="63" y="-158.0139" font-family="Times,serif" font-size="14.00" fill="#000000">a2</text>
</g>
<!-- a1&#45;&gt;a2 -->
<g id="edge2" class="edge">
<title>a1&#45;&gt;a2</title>
<path fill="none" stroke="#000000" d="M63,-216.0452C63,-209.0218 63,-200.7869 63,-192.9"/>
<polygon fill="#000000" stroke="#000000" points="63.0001,-192.6271 59,-186.6272 63,-180.6271 67,-186.6271 63.0001,-192.6271"/>
</g>
<!-- b3 -->
<g id="node8" class="node">
<title>b3</title>
<ellipse fill="#d3d3d3" stroke="#000000" cx="168" cy="-90.2139" rx="27" ry="18"/>
<text text-anchor="middle" x="168" y="-86.0139" font-family="Times,serif" font-size="14.00" fill="#000000">b3</text>
</g>
<!-- a1&#45;&gt;b3 -->
<g id="edge9" class="edge">
<title>a1&#45;&gt;b3</title>
<path fill="none" stroke="#000000" d="M74.8407,-217.9752C92.8011,-193.3437 127.1196,-146.2785 148.7148,-116.6621"/>
<polygon fill="#000000" stroke="#000000" points="148.9713,-116.3103 149.2744,-109.1055 156.0414,-106.6142 155.7384,-113.8189 148.9713,-116.3103"/>
</g>
<!-- a3 -->
<g id="node4" class="node">
<title>a3</title>
<ellipse fill="none" stroke="#000000" cx="63" cy="-90.2139" rx="27" ry="18"/>
<text text-anchor="middle" x="63" y="-86.0139" font-family="Times,serif" font-size="14.00" fill="#000000">a3</text>
</g>
<!-- a2&#45;&gt;a3 -->
<g id="edge3" class="edge">
<title>a2&#45;&gt;a3</title>
<path fill="none" stroke="#000000" d="M63,-144.0452C63,-137.0218 63,-128.7869 63,-120.9"/>
<polygon fill="#000000" stroke="#000000" points="63.0001,-120.6271 59,-114.6272 63,-108.6271 67,-114.6271 63.0001,-120.6271"/>
</g>
<!-- a3&#45;&gt;a0 -->
<g id="edge11" class="edge">
<title>a3&#45;&gt;a0</title>
<path fill="none" stroke="#000000" d="M48.8771,-105.9294C40.7465,-116.067 31.3099,-129.9791 27,-144.2139 13.0904,-190.1543 13.0904,-206.2734 27,-252.2139 30.0641,-262.3339 35.7194,-272.2908 41.6543,-280.8443"/>
<polygon fill="#000000" stroke="#000000" points="41.6883,-280.8898 48.4855,-283.2978 48.8771,-290.4983 42.0799,-288.0903 41.6883,-280.8898"/>
</g>
<!-- end -->
<g id="node10" class="node">
<title>end</title>
<polygon fill="none" stroke="#000000" points="133.2145,-36.3214 96.7855,-36.3214 96.7855,.1076 133.2145,.1076 133.2145,-36.3214"/>
<polyline fill="none" stroke="#000000" points="108.7855,-36.3214 96.7855,-24.3214 "/>
<polyline fill="none" stroke="#000000" points="96.7855,-11.8924 108.7855,.1076 "/>
<polyline fill="none" stroke="#000000" points="121.2145,.1076 133.2145,-11.8924 "/>
<polyline fill="none" stroke="#000000" points="133.2145,-24.3214 121.2145,-36.3214 "/>
<text text-anchor="middle" x="115" y="-13.9069" font-family="Times,serif" font-size="14.00" fill="#000000">end</text>
</g>
<!-- a3&#45;&gt;end -->
<g id="edge12" class="edge">
<title>a3&#45;&gt;end</title>
<path fill="none" stroke="#000000" d="M74.7996,-73.8517C80.6971,-65.6738 88.0008,-55.546 94.7581,-46.1758"/>
<polygon fill="#000000" stroke="#000000" points="94.7646,-46.1668 95.0297,-38.9605 101.7836,-36.4337 101.5185,-43.6399 94.7646,-46.1668"/>
</g>
<!-- b0 -->
<g id="node5" class="node">
<title>b0</title>
<ellipse fill="#d3d3d3" stroke="#000000" cx="168" cy="-306.2139" rx="27" ry="18"/>
<text text-anchor="middle" x="168" y="-302.0139" font-family="Times,serif" font-size="14.00" fill="#000000">b0</text>
</g>
<!-- b1 -->
<g id="node6" class="node">
<title>b1</title>
<ellipse fill="#d3d3d3" stroke="#000000" cx="170" cy="-234.2139" rx="27" ry="18"/>
<text text-anchor="middle" x="170" y="-230.0139" font-family="Times,serif" font-size="14.00" fill="#000000">b1</text>
</g>
<!-- b0&#45;&gt;b1 -->
<g id="edge4" class="edge">
<title>b0&#45;&gt;b1</title>
<path fill="none" stroke="#000000" d="M168.5047,-288.0452C168.6998,-281.0218 168.9285,-272.7869 169.1476,-264.9"/>
<polygon fill="#000000" stroke="#000000" points="169.1552,-264.6225 165.3234,-258.5137 169.4885,-252.6271 173.3203,-258.7359 169.1552,-264.6225"/>
</g>
<!-- b2 -->
<g id="node7" class="node">
<title>b2</title>
<ellipse fill="#d3d3d3" stroke="#000000" cx="173" cy="-162.2139" rx="27" ry="18"/>
<text text-anchor="middle" x="173" y="-158.0139" font-family="Times,serif" font-size="14.00" fill="#000000">b2</text>
</g>
<!-- b1&#45;&gt;b2 -->
<g id="edge5" class="edge">
<title>b1&#45;&gt;b2</title>
<path fill="none" stroke="#000000" d="M170.757,-216.0452C171.0497,-209.0218 171.3928,-200.7869 171.7214,-192.9"/>
<polygon fill="#000000" stroke="#000000" points="171.7331,-192.6167 167.9864,-186.4554 172.2328,-180.6271 175.9795,-186.7885 171.7331,-192.6167"/>
</g>
<!-- b2&#45;&gt;a3 -->
<g id="edge10" class="edge">
<title>b2&#45;&gt;a3</title>
<path fill="none" stroke="#000000" d="M153.5874,-149.5075C136.7264,-138.4711 112.0454,-122.3163 92.7021,-109.6553"/>
<polygon fill="#000000" stroke="#000000" points="92.629,-109.6074 85.4181,-109.6682 82.5885,-103.0354 89.7994,-102.9746 92.629,-109.6074"/>
</g>
<!-- b2&#45;&gt;b3 -->
<g id="edge6" class="edge">
<title>b2&#45;&gt;b3</title>
<path fill="none" stroke="#000000" d="M171.7383,-144.0452C171.2447,-136.9372 170.6649,-128.5883 170.1112,-120.6151"/>
<polygon fill="#000000" stroke="#000000" points="170.1101,-120.5983 165.704,-114.8899 169.2787,-108.6271 173.6848,-114.3356 170.1101,-120.5983"/>
</g>
<!-- b3&#45;&gt;end -->
<g id="edge13" class="edge">
<title>b3&#45;&gt;end</title>
<path fill="none" stroke="#000000" d="M155.9735,-73.8517C149.9625,-65.6738 142.5184,-55.546 135.6312,-46.1758"/>
<polygon fill="#000000" stroke="#000000" points="135.5775,-46.1028 128.801,-43.6372 128.4705,-36.4337 135.2471,-38.8992 135.5775,-46.1028"/>
</g>
<!-- start -->
<g id="node9" class="node">
<title>start</title>
<polygon fill="none" stroke="#000000" points="115,-398.2139 79.3482,-380.2139 115,-362.2139 150.6518,-380.2139 115,-398.2139"/>
<polyline fill="none" stroke="#000000" points="90.0603,-385.6222 90.0603,-374.8055 "/>
<polyline fill="none" stroke="#000000" points="104.2879,-367.6222 125.7121,-367.6222 "/>
<polyline fill="none" stroke="#000000" points="139.9397,-374.8055 139.9397,-385.6222 "/>
<polyline fill="none" stroke="#000000" points="125.7121,-392.8055 104.2879,-392.8055 "/>
<text text-anchor="middle" x="115" y="-376.0139" font-family="Times,serif" font-size="14.00" fill="#000000">start</text>
</g>
<!-- start&#45;&gt;a0 -->
<g id="edge7" class="edge">
<title>start&#45;&gt;a0</title>
<path fill="none" stroke="#000000" d="M105.4624,-366.6411C98.7728,-357.1213 89.6132,-344.0866 81.5134,-332.5599"/>
<polygon fill="#000000" stroke="#000000" points="81.3734,-332.3605 74.6509,-329.7512 74.474,-322.5422 81.1964,-325.1516 81.3734,-332.3605"/>
</g>
<!-- start&#45;&gt;b0 -->
<g id="edge8" class="edge">
<title>start&#45;&gt;b0</title>
<path fill="none" stroke="#000000" d="M124.4753,-366.9842C131.2686,-357.4992 140.6504,-344.4001 148.9648,-332.7914"/>
<polygon fill="#000000" stroke="#000000" points="149.208,-332.4517 149.4498,-325.2446 156.1954,-322.6957 155.9537,-329.9028 149.208,-332.4517"/>
</g>
</g>
</svg>
