<?xml version="1.0" encoding="UTF-8" standalone="no"?>
<!DOCTYPE svg PUBLIC "-//W3C//DTD SVG 1.1//EN"
 "http://www.w3.org/Graphics/SVG/1.1/DTD/svg11.dtd">
<!-- Generated by graphviz version 2.40.1 (20161225.0304)
 -->
<!-- Title: %3 Pages: 1 -->
<svg width="70pt" height="44pt"
 viewBox="0.00 0.00 69.87 44.00" xmlns="http://www.w3.org/2000/svg" xmlns:xlink="http://www.w3.org/1999/xlink">
<g id="graph0" class="graph" transform="scale(1 1) rotate(0) translate(4 40)">
<title>%3</title>
<!-- node_cylinder -->
<g id="node1" class="node">
<title>node_cylinder</title>
<path fill="none" stroke="#000000" d="M61.8038,-32.7273C61.8038,-34.5331 47.9677,-36 30.9346,-36 13.9014,-36 .0653,-34.5331 .0653,-32.7273 .0653,-32.7273 .0653,-3.2727 .0653,-3.2727 .0653,-1.4669 13.9014,0 30.9346,0 47.9677,0 61.8038,-1.4669 61.8038,-3.2727 61.8038,-3.2727 61.8038,-32.7273 61.8038,-32.7273"/>
<path fill="none" stroke="#000000" d="M61.8038,-32.7273C61.8038,-30.9214 47.9677,-29.4545 30.9346,-29.4545 13.9014,-29.4545 .0653,-30.9214 .0653,-32.7273"/>
<text text-anchor="middle" x="30.9346" y="-13.8" font-family="Times,serif" font-size="14.00" fill="#000000">cylinder</text>
</g>
</g>
</svg>
