<?xml version="1.0" encoding="UTF-8" standalone="no"?>
<!DOCTYPE svg PUBLIC "-//W3C//DTD SVG 1.1//EN"
 "http://www.w3.org/Graphics/SVG/1.1/DTD/svg11.dtd">
<!-- Generated by graphviz version 2.40.1 (20161225.0304)
 -->
<!-- Title: %3 Pages: 1 -->
<svg width="276pt" height="282pt"
 viewBox="0.00 0.00 276.40 281.80" xmlns="http://www.w3.org/2000/svg" xmlns:xlink="http://www.w3.org/1999/xlink">
<g id="graph0" class="graph" transform="scale(1 1) rotate(0) translate(4 277.7995)">
<title>%3</title>
<!-- table -->
<g id="node1" class="node">
<title>table</title>
<polygon fill="none" stroke="#000000" points="0,-.5 0,-273.2995 268.4,-273.2995 268.4,-.5 0,-.5"/>
<text text-anchor="middle" x="12.2" y="-134.0997" font-family="Fira Code" font-size="14.00" fill="#000000">0</text>
<polyline fill="none" stroke="#000000" points="24.4,-.5 24.4,-273.2995 "/>
<text text-anchor="middle" x="134.2" y="-258.0995" font-family="Fira Code" font-size="14.00" fill="#000000">1</text>
<polyline fill="none" stroke="#000000" points="24.4,-248.4996 244,-248.4996 "/>
<text text-anchor="middle" x="36.6" y="-134.0997" font-family="Fira Code" font-size="14.00" fill="#000000">2</text>
<polyline fill="none" stroke="#000000" points="48.8,-25.3 48.8,-248.4996 "/>
<text text-anchor="middle" x="134.2" y="-233.2996" font-family="Fira Code" font-size="14.00" fill="#000000">3</text>
<polyline fill="none" stroke="#000000" points="48.8,-223.6996 219.6,-223.6996 "/>
<text text-anchor="middle" x="61" y="-134.0997" font-family="Fira Code" font-size="14.00" fill="#000000">4</text>
<polyline fill="none" stroke="#000000" points="73.2,-50.0999 73.2,-223.6996 "/>
<text text-anchor="middle" x="134.2" y="-208.4996" font-family="Fira Code" font-size="14.00" fill="#000000">5</text>
<polyline fill="none" stroke="#000000" points="73.2,-198.8997 195.2,-198.8997 "/>
<text text-anchor="middle" x="85.4" y="-134.0997" font-family="Fira Code" font-size="14.00" fill="#000000">6</text>
<polyline fill="none" stroke="#000000" points="97.6,-74.8999 97.6,-198.8997 "/>
<text text-anchor="middle" x="134.2" y="-183.6997" font-family="Fira Code" font-size="14.00" fill="#000000">7</text>
<polyline fill="none" stroke="#000000" points="97.6,-174.0997 170.8,-174.0997 "/>
<text text-anchor="middle" x="109.8" y="-134.0997" font-family="Fira Code" font-size="14.00" fill="#000000">8</text>
<polyline fill="none" stroke="#000000" points="122,-99.6998 122,-174.0997 "/>
<text text-anchor="middle" x="134.2" y="-158.8997" font-family="Fira Code" font-size="14.00" fill="#000000">9</text>
<polyline fill="none" stroke="#000000" points="122,-149.2997 146.4,-149.2997 "/>
<text text-anchor="middle" x="134.2" y="-134.0997" font-family="Fira Code" font-size="14.00" fill="#000000">A</text>
<polyline fill="none" stroke="#000000" points="122,-124.4998 146.4,-124.4998 "/>
<text text-anchor="middle" x="134.2" y="-109.2998" font-family="Fira Code" font-size="14.00" fill="#000000">B</text>
<polyline fill="none" stroke="#000000" points="146.4,-99.6998 146.4,-174.0997 "/>
<text text-anchor="middle" x="158.6" y="-134.0997" font-family="Fira Code" font-size="14.00" fill="#000000">C</text>
<polyline fill="none" stroke="#000000" points="97.6,-99.6998 170.8,-99.6998 "/>
<text text-anchor="middle" x="134.2" y="-84.4998" font-family="Fira Code" font-size="14.00" fill="#000000">D</text>
<polyline fill="none" stroke="#000000" points="170.8,-74.8999 170.8,-198.8997 "/>
<text text-anchor="middle" x="183" y="-134.0997" font-family="Fira Code" font-size="14.00" fill="#000000">E</text>
<polyline fill="none" stroke="#000000" points="73.2,-74.8999 195.2,-74.8999 "/>
<text text-anchor="middle" x="134.2" y="-59.6999" font-family="Fira Code" font-size="14.00" fill="#000000">F</text>
<polyline fill="none" stroke="#000000" points="195.2,-50.0999 195.2,-223.6996 "/>
<text text-anchor="middle" x="207.4" y="-134.0997" font-family="Fira Code" font-size="14.00" fill="#000000">G</text>
<polyline fill="none" stroke="#000000" points="48.8,-50.0999 219.6,-50.0999 "/>
<text text-anchor="middle" x="134.2" y="-34.8999" font-family="Fira Code" font-size="14.00" fill="#000000">H</text>
<polyline fill="none" stroke="#000000" points="219.6,-25.3 219.6,-248.4996 "/>
<text text-anchor="middle" x="231.8" y="-134.0997" font-family="Fira Code" font-size="14.00" fill="#000000">I</text>
<polyline fill="none" stroke="#000000" points="24.4,-25.3 244,-25.3 "/>
<text text-anchor="middle" x="134.2" y="-10.1" font-family="Fira Code" font-size="14.00" fill="#000000">J</text>
<polyline fill="none" stroke="#000000" points="244,-.5 244,-273.2995 "/>
<text text-anchor="middle" x="256.2" y="-134.0997" font-family="Fira Code" font-size="14.00" fill="#000000">K</text>
</g>
</g>
</svg>
