<?xml version="1.0" encoding="UTF-8" standalone="no"?>
<!DOCTYPE svg PUBLIC "-//W3C//DTD SVG 1.1//EN"
 "http://www.w3.org/Graphics/SVG/1.1/DTD/svg11.dtd">
<!-- Generated by graphviz version 2.40.1 (20161225.0304)
 -->
<!-- Title: %3 Pages: 1 -->
<svg width="306pt" height="225pt"
 viewBox="0.00 0.00 305.73 225.15" xmlns="http://www.w3.org/2000/svg" xmlns:xlink="http://www.w3.org/1999/xlink">
<g id="graph0" class="graph" transform="scale(1 1) rotate(0) translate(4 221.1494)">
<title>%3</title>
<!-- table -->
<g id="node1" class="node">
<title>table</title>
<polygon fill="none" stroke="#000000" points="0,-.5 0,-216.6494 297.7314,-216.6494 297.7314,-.5 0,-.5"/>
<text text-anchor="middle" x="11.5" y="-105.383" font-family="Baskerville" font-size="14.00" fill="#000000">0</text>
<polyline fill="none" stroke="#000000" points="23,-.5 23,-216.6494 "/>
<text text-anchor="middle" x="35.7407" y="-105.383" font-family="Baskerville" font-size="14.00" fill="#000000">A</text>
<polyline fill="none" stroke="#000000" points="48.4814,-.5 48.4814,-216.6494 "/>
<text text-anchor="middle" x="146.0972" y="-201.4494" font-family="Baskerville" font-size="14.00" fill="#000000">1</text>
<polyline fill="none" stroke="#000000" points="48.4814,-192.6328 243.7129,-192.6328 "/>
<text text-anchor="middle" x="146.0972" y="-177.4328" font-family="Baskerville" font-size="14.00" fill="#000000">B</text>
<polyline fill="none" stroke="#000000" points="48.4814,-168.6162 243.7129,-168.6162 "/>
<text text-anchor="middle" x="59.9814" y="-105.383" font-family="Baskerville" font-size="14.00" fill="#000000">2</text>
<polyline fill="none" stroke="#000000" points="71.4814,-48.5332 71.4814,-168.6162 "/>
<text text-anchor="middle" x="84.5127" y="-105.383" font-family="Baskerville" font-size="14.00" fill="#000000">C</text>
<polyline fill="none" stroke="#000000" points="97.5439,-48.5332 97.5439,-168.6162 "/>
<text text-anchor="middle" x="146.6816" y="-153.4162" font-family="Baskerville" font-size="14.00" fill="#000000">3</text>
<polyline fill="none" stroke="#000000" points="97.5439,-144.5996 195.8193,-144.5996 "/>
<text text-anchor="middle" x="146.6816" y="-129.3996" font-family="Baskerville" font-size="14.00" fill="#000000">D</text>
<polyline fill="none" stroke="#000000" points="97.5439,-120.583 195.8193,-120.583 "/>
<text text-anchor="middle" x="109.0439" y="-105.383" font-family="Baskerville" font-size="14.00" fill="#000000">4</text>
<polyline fill="none" stroke="#000000" points="120.5439,-96.5664 120.5439,-120.583 "/>
<text text-anchor="middle" x="132.9189" y="-105.383" font-family="Baskerville" font-size="14.00" fill="#000000">E</text>
<polyline fill="none" stroke="#000000" points="145.2939,-96.5664 145.2939,-120.583 "/>
<text text-anchor="middle" x="157.1597" y="-105.383" font-family="Baskerville" font-size="14.00" fill="#000000">F</text>
<polyline fill="none" stroke="#000000" points="169.0254,-96.5664 169.0254,-120.583 "/>
<text text-anchor="middle" x="182.4224" y="-105.383" font-family="Baskerville" font-size="14.00" fill="#000000">G</text>
<polyline fill="none" stroke="#000000" points="97.5439,-96.5664 195.8193,-96.5664 "/>
<text text-anchor="middle" x="146.6816" y="-81.3664" font-family="Baskerville" font-size="14.00" fill="#000000">H</text>
<polyline fill="none" stroke="#000000" points="97.5439,-72.5498 195.8193,-72.5498 "/>
<text text-anchor="middle" x="146.6816" y="-57.3498" font-family="Baskerville" font-size="14.00" fill="#000000">I</text>
<polyline fill="none" stroke="#000000" points="195.8193,-48.5332 195.8193,-168.6162 "/>
<text text-anchor="middle" x="206.2974" y="-105.383" font-family="Baskerville" font-size="14.00" fill="#000000">J</text>
<polyline fill="none" stroke="#000000" points="216.7754,-48.5332 216.7754,-168.6162 "/>
<text text-anchor="middle" x="230.2441" y="-105.383" font-family="Baskerville" font-size="14.00" fill="#000000">K</text>
<polyline fill="none" stroke="#000000" points="48.4814,-48.5332 243.7129,-48.5332 "/>
<text text-anchor="middle" x="146.0972" y="-33.3332" font-family="Baskerville" font-size="14.00" fill="#000000">L</text>
<polyline fill="none" stroke="#000000" points="48.4814,-24.5166 243.7129,-24.5166 "/>
<text text-anchor="middle" x="146.0972" y="-9.3166" font-family="Baskerville" font-size="14.00" fill="#000000">M</text>
<polyline fill="none" stroke="#000000" points="243.7129,-.5 243.7129,-216.6494 "/>
<text text-anchor="middle" x="256.9629" y="-105.383" font-family="Baskerville" font-size="14.00" fill="#000000">N</text>
<polyline fill="none" stroke="#000000" points="270.2129,-.5 270.2129,-216.6494 "/>
<text text-anchor="middle" x="283.9722" y="-105.383" font-family="Baskerville" font-size="14.00" fill="#000000">O</text>
</g>
</g>
</svg>
