<?xml version="1.0" encoding="UTF-8" standalone="no"?>
<!DOCTYPE svg PUBLIC "-//W3C//DTD SVG 1.1//EN"
 "http://www.w3.org/Graphics/SVG/1.1/DTD/svg11.dtd">
<!-- Generated by graphviz version 2.40.1 (20161225.0304)
 -->
<!-- Title: %3 Pages: 1 -->
<svg width="147pt" height="60pt"
 viewBox="0.00 0.00 146.88 60.00" xmlns="http://www.w3.org/2000/svg" xmlns:xlink="http://www.w3.org/1999/xlink">
<g id="graph0" class="graph" transform="scale(1 1) rotate(0) translate(4 56)">
<title>%3</title>
<!-- node_tripleoctagon -->
<g id="node1" class="node">
<title>node_tripleoctagon</title>
<polygon fill="none" stroke="#000000" points="130.8292,-18.5442 130.8292,-33.4558 94.8687,-44 44.0129,-44 8.0524,-33.4558 8.0524,-18.5442 44.0129,-8 94.8687,-8 130.8292,-18.5442"/>
<polygon fill="none" stroke="#000000" points="134.8258,-15.5479 134.8258,-36.4521 95.4421,-48 43.4395,-48 4.0558,-36.4521 4.0558,-15.5479 43.4395,-4 95.4421,-4 134.8258,-15.5479"/>
<polygon fill="none" stroke="#000000" points="138.8224,-12.5516 138.8224,-39.4484 96.0155,-52 42.8661,-52 .0592,-39.4484 .0592,-12.5516 42.8661,0 96.0155,0 138.8224,-12.5516"/>
<text text-anchor="middle" x="69.4408" y="-21.8" font-family="Times,serif" font-size="14.00" fill="#000000">tripleoctagon</text>
</g>
</g>
</svg>
